<svg width="182" height="182" viewBox="0 0 182 182" fill="none" xmlns="http://www.w3.org/2000/svg">
<circle cx="91" cy="91" r="85.3112" fill="white" stroke="#25293E" stroke-width="10.6224"/>
<circle cx="91.0001" cy="90.9999" r="62.7386" fill="#1074FF" stroke="#25293E" stroke-width="10.6224"/>
<mask id="path-3-outside-1_45_2777" maskUnits="userSpaceOnUse" x="66.0952" y="58.8879" width="61" height="67" fill="black">
<rect fill="white" x="66.0952" y="58.8879" width="61" height="67"/>
<path d="M93.3234 67.4315C97.3247 67.4315 101.269 68.3832 104.829 70.2081C108.39 72.033 111.466 74.6787 113.803 77.9268C116.139 81.1749 117.67 84.9322 118.268 88.8885C118.866 92.8448 118.515 96.8866 117.243 100.68C115.971 104.474 113.814 107.911 110.952 110.707C108.09 113.503 104.604 115.578 100.781 116.76C96.9587 117.943 92.9097 118.2 88.9685 117.509C85.0273 116.819 81.307 115.2 78.1145 112.788L93.3234 92.6597L93.3234 67.4315Z"/>
</mask>
<path d="M93.3234 67.4315C97.3247 67.4315 101.269 68.3832 104.829 70.2081C108.39 72.033 111.466 74.6787 113.803 77.9268C116.139 81.1749 117.67 84.9322 118.268 88.8885C118.866 92.8448 118.515 96.8866 117.243 100.68C115.971 104.474 113.814 107.911 110.952 110.707C108.09 113.503 104.604 115.578 100.781 116.76C96.9587 117.943 92.9097 118.2 88.9685 117.509C85.0273 116.819 81.307 115.2 78.1145 112.788L93.3234 92.6597L93.3234 67.4315Z" fill="white"/>
<path d="M93.3234 67.4315C97.3247 67.4315 101.269 68.3832 104.829 70.2081C108.39 72.033 111.466 74.6787 113.803 77.9268C116.139 81.1749 117.67 84.9322 118.268 88.8885C118.866 92.8448 118.515 96.8866 117.243 100.68C115.971 104.474 113.814 107.911 110.952 110.707C108.09 113.503 104.604 115.578 100.781 116.76C96.9587 117.943 92.9097 118.2 88.9685 117.509C85.0273 116.819 81.307 115.2 78.1145 112.788L93.3234 92.6597L93.3234 67.4315Z" stroke="#25293E" stroke-width="15.9336" mask="url(#path-3-outside-1_45_2777)"/>
<path d="M89.3403 48.8423L89.3403 91.3319" stroke="#25293E" stroke-width="10.6224" stroke-linecap="round"/>
<path d="M68.0952 119.216L89.34 91.332" stroke="#25293E" stroke-width="10.6224" stroke-linecap="round"/>
</svg>
