<svg width="64" height="38" viewBox="0 0 64 38" fill="none" xmlns="http://www.w3.org/2000/svg">
<g clip-path="url(#clip0_424_810)">
<path d="M12.4704 4.44724C12.5005 4.44722 12.5305 4.4472 12.5615 4.44717C14.3357 4.44929 16.1208 4.78678 17.7214 5.56961C17.7666 5.59144 17.7666 5.59144 17.8127 5.61371C18.4687 5.93352 19.0821 6.32024 19.6455 6.7848C19.6656 6.80133 19.6857 6.81785 19.7065 6.83488C20.3988 7.40773 20.3988 7.40773 20.6688 7.73021C20.7319 7.80485 20.7983 7.87572 20.8649 7.94724C21.2173 8.33869 21.5242 8.77074 21.8058 9.21518C21.8181 9.23453 21.8305 9.25388 21.8432 9.27382C22.8575 10.8794 23.4206 12.708 23.6623 14.5823C23.6675 14.6216 23.6726 14.6609 23.6779 14.7014C23.7617 15.3752 23.7734 16.0472 23.7742 16.7257C23.7743 16.7668 23.7744 16.808 23.7745 16.8503C23.7757 17.5862 23.7417 18.3195 23.637 19.0485C23.6313 19.0888 23.6256 19.129 23.6197 19.1705C23.4624 20.233 23.2022 21.2868 22.7847 22.2785C22.7732 22.3058 22.7618 22.3331 22.75 22.3612C22.3106 23.3948 21.7485 24.3483 21.009 25.195C20.9757 25.2331 20.9427 25.2715 20.9099 25.3099C20.5403 25.7398 20.1322 26.1559 19.6792 26.4979C19.6456 26.5245 19.612 26.5512 19.5773 26.5787C18.08 27.7632 16.2641 28.4469 14.3796 28.692C14.3559 28.6951 14.3321 28.6982 14.3076 28.7014C13.799 28.7658 13.2926 28.7716 12.7805 28.77C12.7387 28.77 12.697 28.7699 12.654 28.7698C12.0307 28.7683 11.4185 28.754 10.8016 28.6582C10.7615 28.6521 10.7214 28.6459 10.68 28.6396C9.94891 28.5242 9.24124 28.3538 8.53998 28.1181C8.51209 28.109 8.4842 28.0998 8.45546 28.0904C7.39281 27.7389 6.38812 27.198 5.49439 26.5261C5.47042 26.5081 5.44646 26.4901 5.42177 26.4716C5.39465 26.4512 5.39465 26.4512 5.36699 26.4304C5.36698 26.4531 5.36697 26.4758 5.36697 26.4993C5.36651 27.8458 5.36518 29.1923 5.36271 30.5388C5.36241 30.7004 5.36212 30.8619 5.36184 31.0235C5.36178 31.0557 5.36172 31.0878 5.36167 31.121C5.36076 31.6423 5.36046 32.1635 5.36037 32.6848C5.36027 33.2194 5.35953 33.754 5.35819 34.2887C5.35739 34.6187 5.35709 34.9488 5.35742 35.2788C5.3576 35.505 5.35716 35.7311 5.35623 35.9573C5.35571 36.0879 5.35547 36.2184 5.35596 36.349C5.35649 36.4905 5.35572 36.6318 5.35481 36.7733C5.35517 36.8148 5.35553 36.8563 5.3559 36.899C5.3526 37.1743 5.3526 37.1743 5.25829 37.2913C5.1607 37.335 5.09821 37.3502 4.99183 37.3502C4.95781 37.3506 4.9238 37.3509 4.88876 37.3512C4.83333 37.3508 4.83333 37.3508 4.77679 37.3503C4.73758 37.3504 4.69837 37.3506 4.65797 37.3508C4.52822 37.3512 4.3985 37.3507 4.26875 37.3501C4.17839 37.3501 4.08803 37.3501 3.99767 37.3502C3.80809 37.3503 3.61852 37.3498 3.42894 37.3491C3.21068 37.3482 2.99243 37.3481 2.77417 37.3485C2.56342 37.3489 2.35268 37.3487 2.14194 37.3482C2.05267 37.348 1.96341 37.348 1.87415 37.3482C1.74886 37.3483 1.62359 37.3477 1.49831 37.347C1.46184 37.3471 1.42537 37.3473 1.38779 37.3474C0.975864 37.3434 0.616472 37.2633 0.312267 36.9734C0.0960936 36.7372 -0.00424583 36.489 -0.0044493 36.1709C-0.00450921 36.149 -0.00456887 36.1271 -0.0046306 36.1045C-0.00479107 36.0307 -0.00471003 35.957 -0.00463163 35.8832C-0.00469753 35.8297 -0.00477861 35.7762 -0.00487268 35.7227C-0.00508927 35.5748 -0.00509359 35.4269 -0.00506531 35.279C-0.00507102 35.1184 -0.00527094 34.9579 -0.00544543 34.7973C-0.00576067 34.4785 -0.00589216 34.1597 -0.00596874 33.8408C-0.0060686 33.4591 -0.00636218 33.0774 -0.00665789 32.6957C-0.00736193 31.7731 -0.00771498 30.8505 -0.00801251 29.9278C-0.00815441 29.4917 -0.0083305 29.0555 -0.00850801 28.6193C-0.00910239 27.1505 -0.00961083 25.6817 -0.00985747 24.2129C-0.00987719 24.0958 -0.00989709 23.9787 -0.00991722 23.8617C-0.00992121 23.8384 -0.00992548 23.8152 -0.00992958 23.7913C-0.00997 23.5559 -0.0100108 23.3206 -0.0100522 23.0853C-0.0100604 23.0381 -0.0100687 22.9909 -0.0100769 22.9437C-0.01034 21.4277 -0.0110961 19.9116 -0.0121928 18.3955C-0.0129805 17.3062 -0.013708 16.2169 -0.0139481 15.1276C-0.0139531 15.1052 -0.0139574 15.0828 -0.0139625 15.0597C-0.0140749 14.5463 -0.0141422 14.0329 -0.0141778 13.5194C-0.0141919 13.3438 -0.0142085 13.1681 -0.0142263 12.9924C-0.0142304 12.9492 -0.0142343 12.9059 -0.0142386 12.8614C-0.0143175 12.1639 -0.0148464 11.4663 -0.0155366 10.7688C-0.0162186 10.0685 -0.0164063 9.36812 -0.0160846 8.66777C-0.0159079 8.25118 -0.0161108 7.83459 -0.0168459 7.41801C-0.0172992 7.14019 -0.017268 6.86239 -0.0168325 6.58458C-0.0165979 6.42599 -0.0165827 6.2674 -0.0171549 6.10881C-0.0176703 5.96479 -0.0175737 5.82079 -0.0169715 5.67677C-0.0168644 5.62475 -0.0169885 5.57273 -0.0173599 5.52071C-0.017829 5.45049 -0.017478 5.38031 -0.0169097 5.31009C-0.0169232 5.27109 -0.016936 5.23209 -0.0169499 5.19191C-0.000100721 5.09703 -0.000101261 5.09703 0.0637607 5.03389C0.146957 4.98932 0.199461 4.98296 0.293547 4.98268C0.325299 4.98235 0.357051 4.98201 0.389766 4.98167C0.441667 4.98189 0.441667 4.98189 0.494616 4.98213C0.531239 4.9819 0.567862 4.98166 0.605594 4.98143C0.726793 4.98081 0.847977 4.98094 0.969176 4.98113C1.05334 4.98098 1.13751 4.9808 1.22167 4.98059C1.39814 4.98029 1.57461 4.98037 1.75108 4.98071C1.93237 4.98105 2.11366 4.98082 2.29495 4.98002C2.51376 4.97906 2.73255 4.97877 2.95136 4.97901C3.03479 4.97902 3.11822 4.97881 3.20164 4.9784C3.31826 4.97789 3.43484 4.97825 3.55145 4.97883C3.58598 4.9785 3.62051 4.97818 3.65609 4.97784C3.80282 4.97937 3.89097 4.9812 4.01905 5.05721C4.10584 5.1551 4.14928 5.26015 4.19346 5.38131C4.20291 5.40594 4.21235 5.43056 4.22207 5.45592C4.25258 5.53584 4.28236 5.616 4.31214 5.69619C4.33295 5.75113 4.35381 5.80606 4.37472 5.86098C4.42642 5.99714 4.47754 6.13352 4.52846 6.26998C4.57043 6.38227 4.61283 6.49439 4.65523 6.60653C4.72427 6.78951 4.79277 6.97269 4.86066 7.1561C5.01639 7.04123 5.16779 6.92411 5.31425 6.79745C6.08224 6.14805 6.99977 5.63596 7.93239 5.26581C7.95837 5.25539 7.98435 5.24498 8.01112 5.23425C9.06214 4.81834 10.182 4.57913 11.3079 4.48944C11.343 4.48655 11.3782 4.48367 11.4143 4.4807C11.7665 4.45432 12.1174 4.44749 12.4704 4.44724ZM8.3037 10.3629C8.26958 10.3886 8.23547 10.4144 8.20032 10.4409C7.92158 10.6959 7.73531 11.0108 7.56108 11.3418C7.54089 11.3795 7.5207 11.4172 7.4999 11.4561C6.8094 12.8324 6.7915 14.5129 6.76361 16.0211C6.76288 16.0608 6.76214 16.1005 6.76138 16.1413C6.7504 16.7595 6.74752 17.3741 6.78471 17.9915C6.78623 18.0171 6.78774 18.0426 6.7893 18.069C6.914 20.4247 6.914 20.4247 7.96614 22.481C7.98281 22.5028 7.99947 22.5247 8.01665 22.5472C8.55123 23.2218 9.4947 23.4731 10.31 23.574C10.9564 23.6481 11.6029 23.6799 12.2531 23.6962C12.2791 23.697 12.3052 23.6978 12.332 23.6986C13.7274 23.7392 15.0613 23.3392 16.0926 22.3812C16.1687 22.3122 16.1687 22.3122 16.2479 22.2528C16.7009 21.8705 17.0494 21.3163 17.3164 20.7932C17.3289 20.7693 17.3414 20.7454 17.3543 20.7208C18.2295 19.0387 18.427 16.8401 18.0927 14.9873C18.0871 14.9538 18.0815 14.9203 18.0757 14.8858C17.8732 13.6889 17.4595 12.5618 16.7425 11.578C16.7234 11.5513 16.7043 11.5245 16.6846 11.497C16.3151 11.0067 15.8534 10.5736 15.3248 10.2616C15.3002 10.247 15.2757 10.2324 15.2504 10.2174C14.2798 9.65096 13.2354 9.50488 12.1286 9.51053C12.0923 9.51064 12.0559 9.51074 12.0185 9.51085C10.0392 9.50871 10.0392 9.50871 8.3037 10.3629Z" fill="black"/>
<path d="M26.2529 4.92262C26.3365 4.92259 26.4201 4.92252 26.5037 4.92243C26.7967 4.92212 27.0897 4.92198 27.3827 4.92201C27.6542 4.92203 27.9257 4.92167 28.1972 4.92114C28.4324 4.9207 28.6677 4.92052 28.903 4.92054C29.0426 4.92055 29.1822 4.92045 29.3218 4.92009C29.4525 4.91977 29.5831 4.91977 29.7137 4.92001C29.7614 4.92005 29.809 4.91997 29.8567 4.91976C30.5401 4.91701 30.5401 4.91701 30.7848 5.1308C30.8468 5.2176 30.8938 5.30946 30.9409 5.40506C30.9552 5.43326 30.9696 5.46147 30.9843 5.49053C31.1542 5.82866 31.3104 6.17336 31.4671 6.51771C31.5699 6.74322 31.674 6.9681 31.7779 7.19307C31.8167 7.27694 31.8554 7.36082 31.8941 7.4447C32.4442 8.63643 32.9962 9.8272 33.5557 11.0145C33.707 11.3355 33.8572 11.6569 34.0063 11.9789C34.1854 12.3659 34.3672 12.7517 34.5496 13.1371C34.7065 13.4688 34.8626 13.8009 35.0173 14.1336C35.1807 14.4851 35.3455 14.8359 35.5126 15.1856C35.5303 15.223 35.548 15.2603 35.5662 15.2987C35.6609 15.4959 35.7617 15.6821 35.8818 15.865C35.9606 15.8663 35.9606 15.8663 36.0506 15.8312C36.2139 15.6342 36.311 15.4113 36.4156 15.1793C36.4443 15.1163 36.4732 15.0533 36.5021 14.9904C36.5224 14.946 36.5427 14.9016 36.563 14.8572C36.6713 14.6202 36.7825 14.3845 36.8938 14.1488C37.0697 13.7763 37.2446 13.4034 37.4177 13.0295C37.5795 12.6801 37.7429 12.3314 37.9071 11.9831C38.0907 11.5936 38.2732 11.2037 38.4542 10.813C38.5864 10.5277 38.7192 10.2427 38.8523 9.9578C39.0599 9.5133 39.2666 9.06841 39.4731 8.62338C39.5643 8.42682 39.6555 8.23028 39.7468 8.03375C39.7834 7.95499 39.8199 7.87622 39.8565 7.79746C39.9296 7.63994 40.0028 7.48241 40.0759 7.32489C40.094 7.28588 40.1121 7.24686 40.1308 7.20667C40.1672 7.12815 40.2037 7.04964 40.2402 6.97113C40.3429 6.74992 40.4455 6.52868 40.548 6.30736C40.6125 6.16822 40.6773 6.02924 40.7422 5.89029C40.8068 5.75163 40.87 5.61251 40.9318 5.47257C40.9452 5.4427 40.9587 5.41283 40.9725 5.38206C40.9969 5.32772 41.0208 5.27316 41.0442 5.21834C41.0603 5.18277 41.0603 5.18277 41.0768 5.14649C41.0901 5.116 41.0901 5.116 41.1037 5.0849C41.1723 4.99843 41.2488 4.97046 41.3502 4.92826C41.4418 4.91914 41.5253 4.91506 41.6166 4.91623C41.656 4.91613 41.656 4.91613 41.6961 4.91603C41.7836 4.91593 41.8712 4.91656 41.9587 4.91719C42.0216 4.91728 42.0845 4.91732 42.1474 4.91733C42.318 4.91749 42.4885 4.9183 42.6591 4.91927C42.8015 4.92001 42.9439 4.92043 43.0863 4.92084C43.4606 4.92196 43.835 4.92388 44.2094 4.92619C44.4799 4.92785 44.7505 4.92919 45.021 4.93039C45.3942 4.93207 45.7674 4.93442 46.1405 4.93726C46.2831 4.93834 46.4257 4.93921 46.5683 4.93992C46.7361 4.94078 46.9039 4.94214 47.0717 4.94389C47.1334 4.94446 47.195 4.94485 47.2567 4.94506C47.3407 4.94538 47.4247 4.94632 47.5087 4.94742C47.5333 4.94738 47.5579 4.94733 47.5832 4.94728C47.6807 4.94911 47.7485 4.95202 47.8311 5.00652C47.8649 5.06328 47.8649 5.06328 47.8511 5.17602C47.7867 5.39133 47.6796 5.59044 47.5801 5.79113C47.5586 5.83515 47.537 5.87918 47.5155 5.92323C47.4722 6.0118 47.4288 6.10031 47.3854 6.18878C47.3036 6.35529 47.2233 6.52249 47.1434 6.68987C47.1215 6.73575 47.1215 6.73575 47.0991 6.78255C47.0092 6.97067 46.9203 7.15919 46.8318 7.34796C46.5911 7.8617 46.3479 8.37405 46.0991 8.88396C46.0861 8.91058 46.0731 8.93721 46.0598 8.96464C46.0091 9.06848 45.9584 9.17233 45.9077 9.27616C45.7067 9.68836 45.5091 10.1022 45.3146 10.5175C45.2702 10.6123 45.2258 10.707 45.1814 10.8017C45.1645 10.8377 45.1645 10.8377 45.1473 10.8744C44.9445 11.3068 44.7359 11.7362 44.5259 12.1651C44.3595 12.5051 44.1957 12.8458 44.0379 13.1899C43.8519 13.5955 43.6564 13.9961 43.4599 14.3966C43.2526 14.8191 43.0464 15.242 42.8481 15.6688C42.8307 15.706 42.8134 15.7432 42.7955 15.7815C42.7649 15.8479 42.7348 15.9145 42.7053 15.9814C42.6666 16.0675 42.6666 16.0675 42.6278 16.1393C42.5768 16.2422 42.5575 16.305 42.5849 16.4184C42.6233 16.5149 42.6677 16.6059 42.7151 16.6983C42.7321 16.7333 42.7491 16.7683 42.7667 16.8044C42.8034 16.8799 42.8406 16.9552 42.8781 17.0303C42.9669 17.2084 43.0528 17.3878 43.1391 17.5671C43.1691 17.6294 43.1992 17.6916 43.2294 17.7537C43.3628 18.0285 43.4925 18.3048 43.6202 18.5823C43.805 18.9834 43.9974 19.3805 44.1915 19.7772C44.3752 20.1529 44.5543 20.5302 44.729 20.9102C44.8755 21.2278 45.0279 21.5423 45.1814 21.8565C45.372 22.2469 45.5584 22.6387 45.7399 23.0334C45.899 23.3778 46.0649 23.7186 46.2313 24.0594C46.3905 24.3855 46.5467 24.7125 46.6983 25.0422C46.8682 25.4119 47.0448 25.778 47.2236 26.1435C47.4629 26.6329 47.6979 27.1241 47.9237 27.62C47.9514 27.6807 47.9795 27.7411 48.0081 27.8014C48.0269 27.8415 48.0269 27.8415 48.046 27.8824C48.0623 27.9167 48.0623 27.9167 48.079 27.9518C48.1167 28.0621 48.0976 28.142 48.0675 28.2532C47.9966 28.3241 47.8413 28.2956 47.7432 28.2974C47.6975 28.2985 47.6975 28.2985 47.6508 28.2995C47.5488 28.3018 47.4468 28.3037 47.3448 28.3056C47.3095 28.3063 47.2742 28.3071 47.2379 28.3078C46.4783 28.3229 45.7188 28.3259 44.9591 28.3251C44.7791 28.3249 44.599 28.325 44.419 28.3252C43.6209 28.3259 42.8226 28.3264 42.0253 28.2869C41.9827 28.2848 41.9401 28.2827 41.8962 28.2806C41.854 28.2781 41.8117 28.2756 41.7682 28.2731C41.7111 28.2698 41.7111 28.2698 41.6528 28.2665C41.5574 28.2538 41.4981 28.237 41.4177 28.1856C41.374 28.1257 41.374 28.1257 41.3362 28.0527C41.3219 28.0254 41.3076 27.9981 41.2929 27.9699C41.2784 27.9409 41.2639 27.9118 41.2489 27.8818C41.2275 27.8393 41.2275 27.8393 41.2057 27.7959C41.1588 27.7011 41.113 27.6059 41.0675 27.5105C41.0501 27.4744 41.0328 27.4382 41.015 27.4009C40.8609 27.0774 40.7126 26.7515 40.565 26.425C40.4053 26.0718 40.243 25.7199 40.078 25.3692C40.0356 25.2789 39.9931 25.1886 39.9506 25.0984C39.9404 25.0766 39.9302 25.0548 39.9196 25.0324C39.7726 24.7196 39.6283 24.4055 39.4838 24.0915C39.3807 23.8674 39.2772 23.6435 39.1738 23.4195C39.1086 23.2783 39.0434 23.137 38.9782 22.9958C38.9651 22.9673 38.9519 22.9389 38.9384 22.9096C38.8587 22.7369 38.779 22.5641 38.6993 22.3914C38.3462 21.6257 38.3462 21.6257 37.9915 20.8608C37.82 20.4918 37.6493 20.1226 37.4789 19.7532C37.4598 19.7118 37.4598 19.7118 37.4403 19.6696C37.3075 19.3817 37.1747 19.0939 37.0421 18.806C36.9882 18.6891 36.9344 18.5723 36.8805 18.4554C36.8552 18.4006 36.83 18.3458 36.8048 18.291C36.7346 18.1385 36.6641 17.9862 36.5933 17.8339C36.5544 17.7499 36.516 17.6657 36.4776 17.5814C36.451 17.5239 36.4244 17.4663 36.3978 17.4087C36.3858 17.3822 36.3738 17.3557 36.3615 17.3284C36.2864 17.1671 36.2006 17.0457 36.0843 16.9114C36.0843 16.8891 36.0843 16.8668 36.0843 16.8439C36.0175 16.8327 35.9507 16.8216 35.8818 16.8101C35.733 17.0342 35.6215 17.2679 35.5105 17.5127C35.4716 17.5977 35.4325 17.6826 35.3934 17.7675C35.3835 17.7891 35.3736 17.8106 35.3634 17.8328C35.2632 18.0502 35.1593 18.2657 35.0548 18.481C34.9056 18.7891 34.7595 19.0985 34.616 19.4093C34.4549 19.7582 34.2898 20.1049 34.1223 20.4508C33.9916 20.7213 33.8643 20.9931 33.7384 21.2658C33.5949 21.5766 33.4487 21.886 33.2995 22.1941C33.1548 22.4932 33.0127 22.7933 32.8734 23.0949C32.6945 23.4822 32.5124 23.8679 32.3291 24.2532C32.3154 24.2819 32.3017 24.3106 32.2877 24.3402C32.274 24.369 32.2602 24.3978 32.2461 24.4275C32.2184 24.4857 32.1908 24.5439 32.1631 24.602C32.1425 24.6453 32.1425 24.6453 32.1215 24.6893C31.9841 24.9783 31.8474 25.2676 31.7109 25.557C31.4841 26.0377 31.2568 26.5181 31.0291 26.9984C31.0172 27.0234 31.0053 27.0485 30.9931 27.0744C30.9696 27.1238 30.9462 27.1732 30.9227 27.2226C30.8628 27.3487 30.8036 27.4752 30.7455 27.6021C30.7335 27.6281 30.7215 27.6541 30.7092 27.6808C30.6866 27.73 30.6641 27.7793 30.6419 27.8286C30.5695 27.9853 30.4948 28.1357 30.3432 28.2288C30.1909 28.2665 30.0404 28.2681 29.8839 28.2721C29.8446 28.2733 29.8053 28.2745 29.7647 28.2758C29.6476 28.2791 29.5305 28.2821 29.4134 28.2849C29.3295 28.287 29.2456 28.2893 29.1617 28.2915C28.2897 28.3149 27.4179 28.3242 26.5457 28.3248C26.474 28.3249 26.4023 28.325 26.3305 28.3252C24.3564 28.3285 24.3564 28.3285 23.8312 28.2532C23.8089 28.2309 23.7866 28.2086 23.7637 28.1856C23.7749 28.0271 23.8283 27.902 23.8963 27.7598C23.9065 27.7383 23.9167 27.7168 23.9272 27.6946C23.961 27.6233 23.9953 27.5522 24.0295 27.481C24.0538 27.4301 24.078 27.3791 24.1022 27.3282C24.1538 27.2197 24.2055 27.1114 24.2573 27.0031C24.3368 26.8371 24.4158 26.6708 24.4947 26.5045C24.602 26.2782 24.7095 26.0519 24.8171 25.8257C24.9733 25.4971 25.1291 25.1684 25.2848 24.8397C25.2972 24.8133 25.3097 24.787 25.3226 24.7598C25.4105 24.5741 25.4985 24.3883 25.5865 24.2025C25.687 23.9901 25.7876 23.7778 25.8881 23.5654C25.9006 23.539 25.9131 23.5127 25.926 23.4855C26.1353 23.0434 26.3452 22.6016 26.5551 22.1597C26.8264 21.5888 27.0971 21.0175 27.3676 20.4462C27.4813 20.206 27.5951 19.9659 27.7088 19.7258C27.7467 19.6457 27.7847 19.5656 27.8226 19.4855C27.95 19.2166 28.0774 18.9477 28.2049 18.6788C28.3561 18.3598 28.5072 18.0407 28.6582 17.7215C28.6711 17.6942 28.684 17.667 28.6973 17.6389C28.7743 17.4761 28.8512 17.3133 28.928 17.1504C28.9519 17.0998 28.9758 17.0491 28.9997 16.9985C29.0326 16.9289 29.0654 16.8593 29.0982 16.7897C29.1168 16.7503 29.1354 16.7109 29.1545 16.6703C29.2437 16.4736 29.2742 16.2933 29.2036 16.0849C29.1624 15.9931 29.1179 15.9038 29.0717 15.8143C29.0373 15.7453 29.003 15.6763 28.9687 15.6073C28.9419 15.5542 28.9419 15.5542 28.9146 15.5C28.8275 15.326 28.7441 15.1503 28.6603 14.9747C28.6263 14.9037 28.5922 14.8328 28.5581 14.7619C28.4733 14.5852 28.3885 14.4086 28.3037 14.2319C28.2699 14.1616 28.2361 14.0912 28.2024 14.0208C28.1188 13.8467 28.0352 13.6726 27.9517 13.4984C27.7707 13.121 27.5892 12.7439 27.4071 12.3671C27.2348 12.0105 27.0635 11.6535 26.8928 11.2961C26.6391 10.7652 26.3839 10.235 26.1279 9.70522C25.9657 9.36953 25.8045 9.03339 25.6438 8.69699C25.4102 8.20792 25.1753 7.71945 24.9395 7.23143C24.8513 7.04883 24.7632 6.86618 24.6751 6.68354C24.658 6.64827 24.641 6.61299 24.6235 6.57665C24.5312 6.38542 24.4395 6.19394 24.3487 6.00202C24.3175 5.93612 24.2861 5.8703 24.2546 5.80453C24.2058 5.70253 24.1577 5.60025 24.1097 5.49788C24.0947 5.46686 24.0797 5.43584 24.0643 5.40388C24.0509 5.37494 24.0375 5.346 24.0237 5.31619C24.0117 5.2909 23.9998 5.26561 23.9875 5.23956C23.961 5.14604 23.9705 5.08772 24 4.99577C24.0892 4.95114 24.1601 4.9549 24.26 4.95154C24.3007 4.95015 24.3414 4.94876 24.3833 4.94733C24.4284 4.946 24.4735 4.94468 24.5186 4.94339C24.5417 4.94268 24.5648 4.94197 24.5886 4.94125C25.1433 4.92449 25.6979 4.92271 26.2529 4.92262Z" fill="black"/>
<path d="M51.2555 -0.00491751C51.3078 -0.00501866 51.3602 -0.00513355 51.4125 -0.00526106C51.5538 -0.00555771 51.695 -0.0056383 51.8363 -0.00565991C51.9247 -0.00568397 52.013 -0.00575615 52.1013 -0.00584547C52.4097 -0.00615711 52.7181 -0.00629566 53.0264 -0.00626904C53.3137 -0.00624872 53.6009 -0.0066059 53.8882 -0.00713803C54.1351 -0.0075792 54.3821 -0.00776049 54.6291 -0.0077389C54.7765 -0.0077303 54.9238 -0.00782643 55.0712 -0.00818373C55.2096 -0.00851025 55.348 -0.00851337 55.4865 -0.00826756C55.5372 -0.00823223 55.588 -0.00831213 55.6388 -0.00851601C55.7081 -0.0087764 55.7774 -0.00861996 55.8467 -0.00835969C55.9049 -0.00838727 55.9049 -0.00838727 55.9642 -0.00841541C56.1074 0.00324043 56.2017 0.0329792 56.3037 0.135007C56.3374 0.309687 56.3464 0.485125 56.3544 0.662433C56.3557 0.69159 56.3571 0.720748 56.3585 0.750788C56.3629 0.849318 56.3671 0.947856 56.3713 1.0464C56.3735 1.09786 56.3735 1.09786 56.3757 1.15036C56.3979 1.67501 56.4088 2.19936 56.4145 2.72441C56.4148 2.75451 56.4152 2.78461 56.4155 2.81563C56.4189 3.1202 56.4218 3.42476 56.4237 3.72934C56.4244 3.84455 56.4255 3.95975 56.4265 4.07496C56.4269 4.12923 56.4273 4.1835 56.4274 4.23778C56.4277 4.3125 56.4283 4.38721 56.4291 4.46193C56.4294 4.52517 56.4294 4.52517 56.4298 4.58968C56.431 4.69794 56.431 4.69794 56.5063 4.79323C56.7666 4.84819 57.0395 4.83548 57.3047 4.83958C57.3583 4.84052 57.4118 4.84147 57.4654 4.84243C57.5805 4.84446 57.6955 4.84641 57.8106 4.84828C57.9937 4.85126 58.1768 4.85446 58.3599 4.85768C58.6506 4.86276 58.9414 4.86772 59.2322 4.87261C59.7497 4.88133 60.2672 4.89018 60.7847 4.89921C60.9364 4.90185 61.088 4.90445 61.2396 4.90696C61.5426 4.91199 61.8456 4.91734 62.1487 4.9237C62.3038 4.92691 62.459 4.92942 62.6142 4.93144C62.7126 4.93285 62.8111 4.9348 62.9096 4.9369C62.9771 4.93818 63.0447 4.93879 63.1123 4.93938C63.1524 4.94034 63.1924 4.9413 63.2337 4.94229C63.2686 4.94285 63.3035 4.9434 63.3395 4.94397C63.4261 4.96201 63.4261 4.96201 63.4886 5.02542C63.5396 5.11969 63.531 5.17331 63.5166 5.2789C63.4909 5.50996 63.4926 5.73562 63.4977 5.96781C63.4985 6.01283 63.4993 6.05785 63.5001 6.10287C63.5018 6.19875 63.5036 6.29464 63.5055 6.39052C63.5105 6.64619 63.5145 6.90187 63.5184 7.15755C63.5188 7.18376 63.5192 7.20996 63.5196 7.23696C63.528 7.78174 63.5324 8.32649 63.5334 8.87132C63.5336 8.96682 63.5339 9.06231 63.5344 9.15781C63.535 9.29055 63.5351 9.42328 63.5352 9.55602C63.5354 9.59547 63.5356 9.63492 63.5359 9.67556C63.5357 9.72944 63.5357 9.72944 63.5356 9.78441C63.5356 9.81564 63.5357 9.84687 63.5357 9.87904C63.5274 9.95779 63.5274 9.95779 63.4599 10.0591C63.3631 10.0913 63.3023 10.0972 63.2019 10.0977C63.1696 10.0979 63.1374 10.0982 63.1041 10.0984C63.051 10.0985 63.051 10.0985 62.9967 10.0987C62.9593 10.0989 62.9218 10.0991 62.8832 10.0994C62.8013 10.0998 62.7193 10.1002 62.6374 10.1006C62.5059 10.1011 62.3745 10.1019 62.243 10.1027C62.0796 10.1037 61.9161 10.1046 61.7527 10.1055C61.2446 10.1083 60.7366 10.112 60.2286 10.1162C60.2048 10.1163 60.181 10.1165 60.1564 10.1167C59.3713 10.1232 58.5864 10.1324 57.8016 10.1542C57.7303 10.1561 57.659 10.1578 57.5877 10.1595C57.4587 10.1626 57.3298 10.1665 57.2009 10.1706C57.1649 10.1715 57.1289 10.1723 57.0919 10.1732C56.7861 10.1838 56.7861 10.1838 56.5063 10.2953C56.442 10.4237 56.4303 10.5291 56.4302 10.6716C56.43 10.7135 56.4298 10.7555 56.4296 10.7988C56.4297 10.8452 56.4298 10.8917 56.43 10.9382C56.4299 10.9877 56.4297 11.0371 56.4296 11.0866C56.4292 11.2225 56.4293 11.3584 56.4294 11.4943C56.4295 11.6409 56.4292 11.7875 56.429 11.934C56.4285 12.2212 56.4285 12.5083 56.4286 12.7955C56.4286 13.0288 56.4286 13.2622 56.4284 13.4955C56.4284 13.5453 56.4284 13.5453 56.4284 13.5961C56.4283 13.6635 56.4283 13.7309 56.4282 13.7983C56.4279 14.4307 56.4279 15.0631 56.4281 15.6955C56.4283 16.2744 56.4279 16.8532 56.4273 17.4321C56.4266 18.0262 56.4264 18.6203 56.4265 19.2144C56.4266 19.548 56.4265 19.8817 56.426 20.2153C56.4256 20.4993 56.4255 20.7833 56.426 21.0673C56.4262 21.2123 56.4262 21.3572 56.4258 21.5022C56.4254 21.6348 56.4255 21.7675 56.426 21.9001C56.4261 21.9481 56.426 21.9962 56.4257 22.0442C56.4254 22.1094 56.4257 22.1746 56.4261 22.2398C56.4261 22.276 56.4261 22.3123 56.4261 22.3496C56.4406 22.4616 56.4737 22.5255 56.54 22.616C56.6498 22.665 56.7737 22.6559 56.8925 22.6587C56.9144 22.6593 56.9363 22.6598 56.9589 22.6604C57.033 22.6623 57.107 22.6639 57.1811 22.6655C57.2352 22.6667 57.2892 22.668 57.3432 22.6693C57.4926 22.6728 57.642 22.6761 57.7914 22.6793C57.886 22.6814 57.9805 22.6836 58.0751 22.6858C58.8928 22.7049 59.7104 22.7193 60.5283 22.7292C60.6991 22.7313 60.8699 22.7335 61.0407 22.7357C61.0893 22.7363 61.138 22.737 61.1867 22.7376C61.2596 22.7386 61.3325 22.7395 61.4054 22.7405C61.6957 22.7443 61.986 22.7476 62.2763 22.7503C62.4826 22.7522 62.6888 22.7548 62.8951 22.7576C62.9809 22.7587 63.0666 22.7595 63.1524 22.7601C63.2702 22.7609 63.388 22.7625 63.5058 22.7643C63.5578 22.7644 63.5578 22.7644 63.6109 22.7645C63.6426 22.7651 63.6743 22.7658 63.707 22.7664C63.7344 22.7667 63.7618 22.767 63.7901 22.7673C63.8965 22.7922 63.9356 22.8323 64 22.9198C64.0168 23.0184 64.0168 23.0184 64.0169 23.1353C64.0172 23.1796 64.0175 23.224 64.0179 23.2697C64.0176 23.3188 64.0172 23.3678 64.0169 23.4169C64.017 23.4687 64.0172 23.5204 64.0174 23.5721C64.0179 23.7126 64.0175 23.853 64.017 23.9935C64.0165 24.1404 64.0167 24.2873 64.0168 24.4342C64.0169 24.6809 64.0165 24.9276 64.0157 25.1742C64.0148 25.4596 64.0147 25.7449 64.0151 26.0303C64.0155 26.3046 64.0153 26.579 64.0148 26.8533C64.0146 26.9702 64.0146 27.087 64.0148 27.2038C64.0149 27.3414 64.0146 27.4789 64.0139 27.6164C64.0137 27.6669 64.0137 27.7174 64.0138 27.7679C64.014 27.8368 64.0136 27.9056 64.013 27.9745C64.0129 28.0323 64.0129 28.0323 64.0128 28.0913C64 28.1856 63.9999 28.1856 63.9529 28.248C63.8008 28.3571 63.5816 28.3254 63.4027 28.325C63.3697 28.3251 63.3366 28.3251 63.3025 28.3252C63.1919 28.3254 63.0814 28.3253 62.9708 28.3251C62.8921 28.3252 62.8134 28.3252 62.7346 28.3253C62.522 28.3254 62.3094 28.3252 62.0967 28.325C61.9642 28.3249 61.8317 28.3248 61.6991 28.3247C60.5063 28.324 59.3136 28.32 58.1208 28.3089C58.0204 28.308 57.9199 28.3072 57.8195 28.3064C57.1968 28.3015 56.5751 28.293 55.9534 28.2555C55.9094 28.2529 55.8654 28.2502 55.8201 28.2475C54.2689 28.1444 52.849 27.592 51.8069 26.4077C50.9579 25.41 50.2196 23.7739 50.2236 22.4553C50.2235 22.4266 50.2235 22.3979 50.2234 22.3683C50.2233 22.2723 50.2234 22.1762 50.2235 22.0802C50.2235 22.0105 50.2234 21.9408 50.2234 21.8711C50.2232 21.6795 50.2233 21.488 50.2234 21.2965C50.2235 21.0896 50.2233 20.8827 50.2233 20.6759C50.2231 20.2929 50.2231 19.91 50.2232 19.527C50.2233 19.1705 50.2233 18.814 50.2233 18.4574C50.2233 18.4336 50.2233 18.4099 50.2233 18.3854C50.2233 18.2888 50.2233 18.1922 50.2232 18.0957C50.2231 17.187 50.2232 16.2784 50.2234 15.3698C50.2236 14.5989 50.2236 13.828 50.2234 13.0571C50.2229 10.4038 50.2228 7.7504 50.2374 2.4086C50.2384 2.23641 50.2391 2.06422 50.2397 1.89203C50.2405 1.67218 50.2418 1.45233 50.2436 1.23248C50.2441 1.15553 50.2445 1.07857 50.2447 1.00161C50.245 0.899426 50.2459 0.797269 50.247 0.695094C50.247 0.666278 50.2469 0.637463 50.2469 0.607773C50.2498 0.417061 50.279 0.24078 50.3628 0.0674964C50.6153 -0.0587261 50.9781 -0.00502498 51.2555 -0.00491751Z" fill="black"/>
</g>
<defs>
<clipPath id="clip0_424_810">
<rect width="64" height="37.3333" fill="white"/>
</clipPath>
</defs>
</svg>
