<?xml version="1.0" encoding="UTF-8"?>
<svg version="1.1" xmlns="http://www.w3.org/2000/svg" width="1896" height="1106">
<path d="M0 0 C0.89134644 -0.00067474 1.78269287 -0.00134949 2.7010498 -0.00204468 C55.26010865 0.06051728 108.14516985 10.05883138 155.5625 33.25 C156.90078857 33.89678711 156.90078857 33.89678711 158.26611328 34.55664062 C177.69948322 44.03104382 195.87194379 55.4876436 212.5625 69.25 C213.15877197 69.73968262 213.75504395 70.22936523 214.36938477 70.73388672 C234.87937935 87.70442067 234.87937935 87.70442067 242.87890625 97.2578125 C244.74761177 99.46904177 246.71484194 101.56858701 248.6875 103.6875 C259.12808104 115.28419308 268.21888313 128.0837299 276.5625 141.25 C276.92762695 141.82331055 277.29275391 142.39662109 277.66894531 142.98730469 C307.71771458 190.55329371 324.40041174 244.72456309 331.5625 300.25 C331.71493164 301.4143457 331.86736328 302.57869141 332.02441406 303.77832031 C334.50693268 323.74034368 334.85126238 343.64872329 334.875 363.75 C334.87858521 364.9683252 334.88217041 366.18665039 334.88586426 367.44189453 C334.92036968 389.24051416 333.91302644 410.96618532 330.8125 432.5625 C330.64258545 433.75504395 330.4726709 434.94758789 330.29760742 436.17626953 C325.63839055 467.65434299 317.93151434 498.87061189 305.5625 528.25 C305.22283203 529.05872559 304.88316406 529.86745117 304.53320312 530.70068359 C291.51693617 561.32042145 274.86461704 589.56949325 252.95605469 614.65161133 C251.97112875 615.78130826 250.99327524 616.91718982 250.02050781 618.05737305 C239.07187317 630.79305187 226.98225548 643.11839287 213.5625 653.25 C212.56605469 654.04019531 211.56960938 654.83039062 210.54296875 655.64453125 C166.18444822 690.73653717 112.38955123 710.98917497 56.5625 718.25 C55.85828918 718.3421579 55.15407837 718.4343158 54.42852783 718.52926636 C39.36187145 720.43706655 24.35823819 720.6088405 9.1875 720.5625 C7.95060425 720.56067719 6.7137085 720.55885437 5.43933105 720.55697632 C-13.02504016 720.51116606 -31.1605781 720.0875751 -49.4375 717.25 C-50.62569336 717.06775879 -51.81388672 716.88551758 -53.03808594 716.69775391 C-74.69802291 713.280018 -95.66277519 708.23133141 -116.4375 701.25 C-117.26378906 700.97881348 -118.09007812 700.70762695 -118.94140625 700.42822266 C-150.42266922 690.01657595 -180.1865349 673.9905696 -206.66333008 654.0871582 C-207.37322586 653.55379349 -208.08312164 653.02042877 -208.81452942 652.47090149 C-209.61789986 651.86655525 -209.61789986 651.86655525 -210.4375 651.25 C-210.43771737 651.92347544 -210.43793474 652.59695088 -210.43815869 653.29083467 C-210.45166618 693.18123886 -210.4911062 733.07154169 -210.56435562 772.9618829 C-210.57312267 777.74851405 -210.58167243 782.53514557 -210.59008789 787.32177734 C-210.59176695 788.27473421 -210.59344602 789.22769108 -210.59517596 790.20952544 C-210.62186651 805.65212709 -210.63094251 821.09469162 -210.63354143 836.53731397 C-210.6365978 852.37563913 -210.65850782 868.21385673 -210.69802457 884.05213332 C-210.7218233 893.83007864 -210.73080772 903.60780945 -210.72101311 913.38577977 C-210.71570903 920.08532167 -210.72867094 926.78467086 -210.7561629 933.48415789 C-210.77149465 937.35305189 -210.77861339 941.22151476 -210.76409721 945.09042168 C-210.74858707 949.28016986 -210.77145972 953.46881765 -210.79826355 957.6585083 C-210.78759029 958.88806944 -210.77691703 960.11763058 -210.76592034 961.38445115 C-210.86382593 969.53801146 -210.86382593 969.53801146 -213.65781784 973.00564289 C-216.54867455 974.29976858 -218.39994773 974.75044911 -221.551651 974.75120544 C-222.55929504 974.76103958 -223.56693909 974.77087372 -224.6051178 974.78100586 C-226.24703346 974.76650391 -226.24703346 974.76650391 -227.92211914 974.75170898 C-229.0837558 974.75711197 -230.24539246 974.76251495 -231.44223022 974.76808167 C-235.28596417 974.78059655 -239.12895278 974.76405127 -242.97265625 974.74609375 C-245.64962275 974.74624875 -248.32656254 974.74768431 -251.00352478 974.75050354 C-256.61986971 974.75320494 -262.23600089 974.73974529 -267.85229492 974.71655273 C-274.31823619 974.69003394 -280.78381812 974.68816714 -287.24979502 974.6999411 C-293.49312375 974.71078194 -299.73632423 974.70447689 -305.97964287 974.69038582 C-308.62404443 974.68588772 -311.2684565 974.68552007 -313.91285896 974.68945122 C-317.62449373 974.69238426 -321.33555686 974.67575247 -325.04711914 974.65405273 C-326.12755997 974.65855438 -327.20800079 974.66305603 -328.32118225 974.66769409 C-340.52454887 974.55004577 -351.17152155 972.17462376 -360.18359375 963.5859375 C-366.58773038 956.59089549 -369.56027345 949.23757546 -369.56630117 939.81270689 C-369.56807618 939.16423311 -369.56985119 938.51575933 -369.57167998 937.84763483 C-369.57643399 935.66136442 -369.57404359 933.4751596 -369.57172108 931.28888607 C-369.57367352 929.70419964 -369.57606218 928.1195137 -369.57884905 926.53482851 C-369.58526556 922.15351228 -369.58540936 917.77221434 -369.58457164 913.3908943 C-369.58474081 908.63447696 -369.59064322 903.87806624 -369.5958125 899.12165219 C-369.60515159 889.67612659 -369.60906274 880.23060568 -369.61133147 870.78507604 C-369.61429004 859.47654311 -369.62298526 848.16801642 -369.63174575 836.85948676 C-369.65260272 809.52729769 -369.66306094 782.19510754 -369.67187535 754.86291237 C-369.67607909 741.94121884 -369.68130136 729.01952577 -369.68655988 716.09783263 C-369.70416856 672.5846266 -369.71922338 629.07142057 -369.72653012 585.55821155 C-369.7271141 582.08948119 -369.72771136 578.62075082 -369.72830774 575.15202046 C-369.72842586 574.46392656 -369.72854398 573.77583267 -369.72866567 573.06688745 C-369.72986308 566.09539103 -369.73107184 559.12389462 -369.73229821 552.15239821 C-369.73254344 550.75458019 -369.7327873 549.35676217 -369.73302978 547.95894414 C-369.7408232 503.04495056 -369.76321579 458.13098308 -369.7957062 413.21700091 C-369.81904271 380.94629166 -369.84059901 348.67558758 -369.84771252 316.40487003 C-369.84785954 315.74162862 -369.84800656 315.07838721 -369.84815803 314.39504757 C-369.85148523 299.18440968 -369.85346751 283.9737718 -369.85452431 268.76313359 C-369.85494188 263.55928838 -369.85542145 258.35544318 -369.85594749 253.15159798 C-369.85607069 251.87020575 -369.85619388 250.58881353 -369.8563208 249.26859123 C-369.8586575 228.60477825 -369.87434325 207.94099577 -369.89478934 187.27719367 C-369.91499402 166.5291378 -369.92055008 145.78111877 -369.91101871 125.03305488 C-369.9057832 112.69160315 -369.91177741 100.35027363 -369.93355338 88.00883936 C-369.94698362 79.77869004 -369.94605393 71.54862556 -369.93315142 63.31847554 C-369.92620266 58.62025101 -369.92576102 53.92226141 -369.94271151 49.22405713 C-369.9579805 44.95745082 -369.95513987 40.69127087 -369.93730123 36.42467804 C-369.93412831 34.88360452 -369.93778866 33.34249946 -369.94879298 31.80146196 C-369.96269123 29.7210927 -369.95228007 27.64225725 -369.93544465 25.56194395 C-369.93584484 24.40655454 -369.93624502 23.25116513 -369.93665733 22.06076392 C-369.4375 19.25 -369.4375 19.25 -367.5455891 17.3792733 C-365.08089672 16.0589727 -363.52547026 15.87062258 -360.73817444 15.86231995 C-359.79751633 15.85241531 -358.85685822 15.84251068 -357.88769531 15.83230591 C-356.35012573 15.83905838 -356.35012573 15.83905838 -354.78149414 15.84594727 C-353.6965416 15.83908401 -352.61158905 15.83222076 -351.49375916 15.82514954 C-347.90325882 15.80683114 -344.31319334 15.81072638 -340.72265625 15.81640625 C-338.2292822 15.81184687 -335.73590941 15.80654203 -333.24253845 15.80052185 C-328.01459791 15.79158082 -322.78677049 15.79379185 -317.55883789 15.80395508 C-312.1879352 15.81416569 -306.81739282 15.80712429 -301.4465332 15.78344727 C-294.96444945 15.75521155 -288.48265663 15.74648562 -282.00051689 15.75367546 C-279.52894794 15.75382899 -277.05737057 15.74775881 -274.5858326 15.73538399 C-271.1311847 15.72052469 -267.67751737 15.73111502 -264.22290039 15.74829102 C-263.19987823 15.73862305 -262.17685608 15.72895508 -261.12283325 15.71899414 C-256.77601145 15.76430229 -254.16452058 15.81855023 -250.37028503 18.07023621 C-247.79886974 20.97023691 -246.51212022 24.08248693 -245.203125 27.671875 C-244.92342865 28.40128296 -244.6437323 29.13069092 -244.3555603 29.88220215 C-243.45176096 32.24960444 -242.56949899 34.62439994 -241.6875 37 C-241.07081162 38.62777666 -240.45280322 40.25505381 -239.83349609 41.88183594 C-238.30175962 45.91573515 -236.78728791 49.95584425 -235.27893066 53.99853516 C-234.03567088 57.32519748 -232.77930772 60.64682765 -231.5234375 63.96875 C-229.47791457 69.38962017 -227.44871332 74.81630968 -225.4375 80.25 C-220.82395538 76.84674312 -216.33872384 73.37706133 -212 69.625 C-189.24812836 50.38653027 -162.06637129 35.21586768 -134.4375 24.25 C-133.66776855 23.94143066 -132.89803711 23.63286133 -132.10498047 23.31494141 C-100.9686704 10.99384996 -67.79387635 3.90722036 -34.4375 1.25 C-33.39698486 1.16459961 -32.35646973 1.07919922 -31.28442383 0.99121094 C-20.85308659 0.20954355 -10.45731291 0.00720402 0 0 Z M-123.4375 175.25 C-124.448125 176.013125 -125.45875 176.77625 -126.5 177.5625 C-134.75783817 185.11754343 -140.27610275 194.4459786 -145.4375 204.25 C-146.035625 205.36761719 -146.63375 206.48523438 -147.25 207.63671875 C-167.7060057 248.41174797 -168.2363673 298.1965632 -169.0625 342.875 C-169.08429321 344.05073578 -169.10608643 345.22647156 -169.12854004 346.43783569 C-169.45384283 364.75135645 -169.53918697 382.95839152 -168.4375 401.25 C-168.39260437 402.00674011 -168.34770874 402.76348022 -168.30145264 403.54315186 C-164.60717613 473.33296166 -164.60717613 473.33296166 -133.4375 534.25 C-132.94378906 534.89710938 -132.45007813 535.54421875 -131.94140625 536.2109375 C-116.10426053 556.19496676 -88.15404295 563.64171858 -64 566.62890625 C-44.8511263 568.82615148 -25.69996857 569.76630433 -6.4375 570.25 C-5.66583496 570.27336426 -4.89416992 570.29672852 -4.09912109 570.32080078 C37.23938709 571.52562137 76.75639944 559.67394113 107.30859375 531.29296875 C109.5625 529.25 109.5625 529.25 111.91015625 527.48828125 C125.33026462 516.16321189 135.65304953 499.74614024 143.5625 484.25 C143.9332666 483.54214355 144.3040332 482.83428711 144.68603516 482.10498047 C170.6140971 432.27051629 176.46406697 367.13742637 166.5625 312.25 C166.39621094 311.25742187 166.22992187 310.26484375 166.05859375 309.2421875 C160.05997756 273.78370071 147.80263309 240.39343843 126.5625 211.25 C125.99660156 210.45722656 125.43070312 209.66445313 124.84765625 208.84765625 C113.89884767 194.3237265 100.222985 181.49393455 84.5625 172.25 C83.83482422 171.81751953 83.10714844 171.38503906 82.35742188 170.93945312 C53.60339864 154.16011309 22.66504263 149.83238881 -10.125 150 C-11.2013269 150.00310181 -12.27765381 150.00620361 -13.38659668 150.00939941 C-72.02232217 149.94585658 -72.02232217 149.94585658 -123.4375 175.25 Z " fill="#FFFFFF" transform="translate(369.4375,131.75)"/>
<path d="M0 0 C2.47754074 -0.00072331 4.95507633 -0.00288037 7.43261576 -0.00549722 C16.11205113 -0.01464418 24.79147146 -0.01884355 33.4709115 -0.01804566 C41.514246 -0.0174397 49.55751458 -0.02811937 57.60083234 -0.04378933 C64.57054561 -0.05687645 71.54023723 -0.06222945 78.50996268 -0.06159025 C82.64633158 -0.0613367 86.78264085 -0.06411235 90.91899729 -0.0747683 C94.78861093 -0.08447556 98.65810784 -0.08451065 102.5277257 -0.07725167 C103.93979867 -0.07621087 105.35187908 -0.07853851 106.76393938 -0.08461213 C127.01107233 -0.16603608 127.01107233 -0.16603608 134.25802088 6.16725707 C136.09606429 8.738729 137.48885932 11.46029269 138.88302088 14.29225707 C139.30776697 15.12789184 139.73251307 15.9635266 140.17013025 16.82448363 C145.20237534 26.8414998 149.82964901 37.05325529 154.47237635 47.25465941 C157.51688106 53.93527123 160.60199839 60.5972602 163.68075037 67.26213622 C164.82839856 69.74681237 165.97541675 72.23177847 167.12227869 74.71681762 C183.41731229 110.02158684 199.77162228 145.29819639 216.34774256 180.47197509 C220.82848531 189.98105046 225.28014731 199.50261333 229.69552088 209.04225707 C235.0029901 220.50718745 240.38609648 231.93512942 245.78985071 243.35490966 C250.4393604 253.18110996 255.0627233 263.01862848 259.64577723 272.8759973 C264.48871579 283.28795526 269.36943501 293.6813111 274.32052088 304.04225707 C274.84484705 305.14770873 275.36917322 306.25316039 275.90938807 307.39211059 C278.71474069 313.23477946 281.69980971 318.74832997 285.25802088 324.16725707 C287.59340995 324.20598394 287.59340995 324.20598394 290.25802088 323.16725707 C295.09621585 317.33200165 297.97244338 310.72777044 301.07052088 303.85475707 C301.9225638 301.98798343 302.77746255 300.1225341 303.63250208 298.25713134 C304.23481276 296.94278425 304.83629951 295.62805932 305.43700647 294.31297851 C308.64762012 287.29085347 311.94092338 280.30826852 315.23833704 273.32658935 C320.44960747 262.29094867 325.62995339 251.24183674 330.75802088 240.16725707 C335.55163836 229.81495596 340.39355965 219.48640506 345.25802088 209.16725707 C350.69665606 197.62915462 356.10204313 186.0767004 361.46505213 174.50319457 C365.38163704 166.05110761 369.31574413 157.60737793 373.25802088 149.16725707 C379.40781795 135.99884739 385.53310963 122.81916366 391.64913416 109.63503051 C394.35082204 103.81184771 397.05452843 97.98960224 399.75802088 92.16725707 C400.84136377 89.83392818 401.92469711 87.50059484 403.00802088 85.16725707 C405.17468754 80.5005904 407.34135421 75.83392374 409.50802088 71.16725707 C410.04459314 70.01153197 410.58116541 68.85580688 411.13399744 67.6650598 C412.21397987 65.33900625 413.29405751 63.01299691 414.37423182 60.68703246 C417.41743232 54.13368291 420.45868625 47.57944098 423.49518824 41.02298522 C425.40489155 36.90096539 427.32475567 32.78376582 429.24630213 28.66725707 C431.16043872 24.55957438 433.03370626 20.4381591 434.86348963 16.29225707 C435.26148767 15.40739623 435.65948572 14.52253539 436.06954432 13.61086059 C436.79281161 12.00107333 437.50179275 10.38474819 438.19259119 8.76076293 C438.67163904 7.70707519 438.67163904 7.70707519 439.16036463 6.63210082 C439.5546969 5.72899169 439.5546969 5.72899169 439.95699549 4.80763793 C441.9887032 2.24598581 444.25406184 1.41719387 447.25802088 0.16725707 C449.97169936 -0.10308817 452.44565559 -0.22395243 455.15230799 -0.18918824 C456.3174474 -0.19220807 456.3174474 -0.19220807 457.50612497 -0.1952889 C460.09943582 -0.19823262 462.69212653 -0.17959917 465.28536463 -0.16086793 C467.14854793 -0.15825868 469.01173334 -0.15690183 470.87491846 -0.15670228 C475.92870548 -0.15197797 480.98222749 -0.12785153 486.0359292 -0.09924912 C490.25393034 -0.07721363 494.47193751 -0.06493694 498.68997622 -0.0525372 C509.78063612 -0.01940255 520.87105929 0.03730893 531.96155214 0.10585666 C539.9765279 0.15511949 547.99150809 0.19483128 556.00655603 0.23024535 C567.06205838 0.28005589 578.11731009 0.34954082 589.17260218 0.43373656 C593.39709624 0.46569671 597.62156272 0.49159923 601.84612513 0.51259398 C606.81676232 0.53807346 611.78706288 0.57831105 616.75749254 0.63019156 C618.58475484 0.64693509 620.41207138 0.65861385 622.23939943 0.66493964 C624.72806323 0.67445671 627.2158577 0.70225197 629.70430994 0.73488402 C630.43280618 0.73344768 631.16130241 0.73201133 631.91187429 0.73053145 C634.80116105 0.78493344 636.80922091 0.87109996 639.25576258 2.48554015 C640.25802088 4.16725707 640.25802088 4.16725707 639.84786463 7.50710082 C637.94053251 13.88569589 634.76822834 19.78417045 631.82052088 25.72975707 C631.18147195 27.03377672 630.54330036 28.33822665 629.9059701 29.64308715 C628.62381076 32.26688432 627.3385056 34.88909786 626.05050135 37.51003051 C623.62916986 42.44288771 621.2510188 47.39610956 618.88302088 52.35475707 C618.23260828 53.71395263 618.23260828 53.71395263 617.56905603 55.10060668 C614.90779892 60.67359778 612.27272706 66.25846712 609.65255213 71.85085082 C602.51993393 87.0702776 595.31547088 102.24855122 587.94552088 117.35475707 C587.56074579 118.14349212 587.17597071 118.93222716 586.77953577 119.74486327 C585.27856492 122.82125718 583.77744626 125.89757892 582.27610254 128.97379088 C576.31900737 141.18516195 570.465611 153.44484709 564.70333338 165.74928832 C563.3886064 168.55545481 562.07346816 171.36142817 560.75802088 174.16725707 C560.258202 175.23370955 560.258202 175.23370955 559.74828577 176.32170653 C553.7394581 189.13110017 547.55949584 201.85286175 541.33779383 214.55995727 C536.40908086 224.63121661 531.55685545 234.72467007 526.88302088 244.91725707 C521.37267291 256.93278933 515.58098594 268.80092309 509.75802088 280.66725707 C503.61812449 293.18469778 497.50922219 305.71098201 491.63302088 318.35475707 C491.11932947 319.45690551 490.60563807 320.55905395 490.07638025 321.69460082 C489.1691719 323.66125881 488.27660376 325.63478046 487.40328455 327.61671996 C486.25802088 330.16725707 486.25802088 330.16725707 485.10689783 332.29396605 C483.5975015 335.34301558 483.02502473 337.20295555 483.83712244 340.56398559 C484.97574345 343.42147613 486.29073708 346.1182364 487.69552088 348.85475707 C488.19906092 349.89148559 488.70260096 350.9282141 489.22139978 351.99635863 C490.31069086 354.23333714 491.41206223 356.46446509 492.52413416 358.69020629 C495.15472419 363.9654616 497.69887994 369.28183265 500.25402308 374.59392333 C501.14297809 376.43791165 502.03615493 378.27979727 502.9306283 380.12111449 C506.88254971 388.26156611 510.72554668 396.44634709 514.50802088 404.66725707 C519.98135395 416.55133552 525.68361842 428.31490759 531.4321847 440.0678308 C536.87354672 451.19801202 542.18126449 462.37479089 547.35567713 473.63210082 C551.69625217 483.04029723 556.21075277 492.35762613 560.75802088 501.66725707 C566.40623501 513.23103425 571.92710906 524.83792606 577.30489588 536.53053832 C582.01567875 546.73334777 586.9305759 556.83132145 591.86254358 566.92854857 C596.57806431 576.58758116 601.20624542 586.27551276 605.69552088 596.04225707 C610.73065042 606.99430279 615.96224032 617.83950013 621.25802088 628.66725707 C628.34897134 643.16801145 635.30892644 657.72037992 641.99849939 672.4113977 C642.81946729 674.20769264 643.65273588 675.99843205 644.49996424 677.78249145 C645.05502649 678.9706848 645.05502649 678.9706848 645.62130213 680.18288207 C646.10530481 681.20043578 646.10530481 681.20043578 646.59908533 682.23854613 C647.71613752 685.50816908 647.15003153 687.87367928 646.25802088 691.16725707 C644.15712034 693.26815761 639.55633182 692.42432528 636.65230799 692.47926879 C635.29657647 692.51000424 635.29657647 692.51000424 633.91345644 692.54136062 C630.89168423 692.60745413 627.86982702 692.66525028 624.84786463 692.72194457 C623.80270119 692.74288051 622.75753775 692.76381644 621.68070269 692.7853868 C599.17841758 693.23220652 576.6789223 693.32207638 554.1728158 693.29762816 C548.83908213 693.29187618 543.50539776 693.29536487 538.17166567 693.30106521 C514.5271139 693.32254023 490.87992466 693.33839948 467.25802088 692.16725707 C465.99587763 692.10540221 464.73373438 692.04354735 463.43334436 691.97981811 C462.18254084 691.90648253 460.93173731 691.83314696 459.64303064 691.7575891 C457.95090197 691.66068282 457.95090197 691.66068282 456.22458887 691.56181884 C453.39873592 691.18597256 451.64160923 690.6895964 449.25802088 689.16725707 C447.96261072 687.38991332 447.96261072 687.38991332 446.84395838 685.22975707 C446.42082361 684.42022582 445.99768885 683.61069457 445.56173182 682.77663207 C445.13150721 681.91553832 444.7012826 681.05444457 444.25802088 680.16725707 C443.62428553 678.90655395 443.62428553 678.90655395 442.97774744 677.62038207 C441.58976733 674.81327795 440.23236664 671.99313255 438.88302088 669.16725707 C438.3697323 668.09548217 437.85644373 667.02370727 437.32760096 665.91945434 C432.76442914 656.33618066 428.36980421 646.67954655 423.99767542 637.00804687 C419.26712521 626.5442582 414.45922133 616.12059767 409.57052088 605.72975707 C408.3126237 603.05531772 407.0547631 600.38086119 405.79708338 597.70631957 C405.49381128 597.06144591 405.19053919 596.41657226 404.87807703 595.75215697 C400.52328062 586.48489279 396.248451 577.18070688 391.96749353 567.87917113 C388.91117611 561.24060203 385.84614162 554.60604949 382.78292322 547.97066283 C380.85124649 543.78628603 378.91985036 539.60177973 376.98848963 535.41725707 C376.59946466 534.57440154 376.2104397 533.73154601 375.8096261 532.8631494 C373.44829264 527.74689643 371.08763013 522.63033447 368.7275033 517.51352477 C358.26509059 494.83005902 358.26509059 494.83005902 347.75802088 472.16725707 C342.67766476 461.23796574 337.62002569 450.29832905 332.57052088 439.35475707 C332.00483896 438.12891906 332.00483896 438.12891906 331.42772913 436.87831664 C327.49291154 428.35128936 323.55989174 419.82343674 319.63047266 411.29392028 C318.03552503 407.83215505 316.4398277 404.37073564 314.84404993 400.90935302 C314.09580906 399.2858085 313.34792724 397.66209844 312.60045862 396.03819823 C310.52103193 391.52061771 308.43290066 387.00722804 306.33632898 382.49757934 C305.18433047 380.00800536 304.0458617 377.51245003 302.90694666 375.01686645 C302.11944417 373.31159398 301.33153161 371.60651082 300.54317713 369.90163207 C300.18839792 369.11612975 299.83361872 368.33062743 299.46808863 367.52132201 C297.24266381 362.74366741 294.70119008 359.14556173 291.25802088 355.16725707 C291.25802088 354.50725707 291.25802088 353.84725707 291.25802088 353.16725707 C289.27802088 352.83725707 287.29802088 352.50725707 285.25802088 352.16725707 C280.84825949 358.80621769 277.54574271 365.72990892 274.25802088 372.97975707 C273.10511238 375.49822385 271.94754461 378.01453526 270.78927088 380.53053832 C270.49588831 381.16875518 270.20250574 381.80697204 269.90023279 382.4645288 C266.93294334 388.90422379 263.85254877 395.28784834 260.75802088 401.66725707 C256.33697856 410.79463459 252.00928596 419.95958919 247.75802088 429.16725707 C242.98560057 439.50367702 238.09523187 449.77623726 233.13302088 460.02272582 C229.26181981 468.03499534 225.48809655 476.08841529 221.75802088 484.16725707 C217.50674835 493.37494108 213.17826041 502.53948233 208.75802088 511.66725707 C204.46904937 520.5270833 200.25943844 529.4180712 196.13302088 538.35475707 C190.83319566 549.82847099 185.43852778 561.25487385 180.00802088 572.66725707 C179.60316462 573.51812896 179.19830835 574.36900084 178.78118372 575.24565673 C178.3751391 576.09900603 177.96909449 576.95235534 177.55074549 577.83156371 C176.73049959 579.55543363 175.91026846 581.27931058 175.09005213 583.00319457 C174.48105318 584.28307502 174.48105318 584.28307502 173.85975122 585.58881164 C169.78827687 594.14873788 165.739654 602.71938732 161.69552088 611.29225707 C154.97690533 625.53304811 148.24177022 639.76594109 141.49605799 653.99391723 C141.14394754 654.73700133 140.7918371 655.48008544 140.42905664 656.24568725 C139.73485014 657.70990818 139.03982597 659.17374176 138.34394312 660.63716674 C136.56937282 664.37404153 134.81646907 668.11922614 133.09444666 671.88063598 C132.73979837 672.64982863 132.38515009 673.41902129 132.01975489 674.21152282 C131.34888495 675.66841898 130.68339445 677.12780993 130.02448511 678.59015441 C127.87997858 683.23102191 125.66901237 687.68809344 121.17598963 690.44460082 C116.66359191 691.56212904 112.20541493 691.61126733 107.57052088 691.72975707 C106.40520838 691.76512572 105.23989588 691.80049438 104.03927088 691.8369348 C100.57018397 691.93651852 97.1011093 692.02505885 93.63161707 692.10866332 C91.14548346 692.17003513 88.65952559 692.23658328 86.17354822 692.30397582 C60.34244917 692.99501717 34.5147911 693.27102349 8.67547083 693.29019332 C6.55072101 693.29221641 4.42598041 693.2959585 2.30123377 693.30010009 C-56.18371949 693.39972924 -56.18371949 693.39972924 -71.74197912 691.16725707 C-72.40197912 690.50725707 -73.06197912 689.84725707 -73.74197912 689.16725707 C-73.40961649 684.47104921 -71.82702563 680.76508164 -69.81229162 676.55006957 C-69.51061071 675.9134439 -69.20892981 675.27681823 -68.89810705 674.62090087 C-67.89475236 672.5079297 -66.880858 670.40019598 -65.86697912 668.29225707 C-65.14800479 666.78315627 -64.42975954 665.27370792 -63.71219397 663.76393676 C-62.18440384 660.55240061 -60.65234123 657.3429534 -59.11697912 654.13503051 C-56.76326739 649.21558925 -54.42280994 644.28992949 -52.08572912 639.36256957 C-48.90515411 632.65800576 -45.72160254 625.95487094 -42.53494787 619.25319457 C-37.9077131 609.52035373 -33.2917069 599.7822169 -28.67947912 590.04225707 C-28.30985052 589.26174987 -27.94022192 588.48124267 -27.55939245 587.67708373 C-24.95327264 582.17395748 -22.34756606 576.67063564 -19.74197912 571.16725707 C-16.76310893 564.87544999 -13.7840426 558.58373587 -10.80447912 552.29225707 C-10.43474981 551.51154845 -10.0650205 550.73083983 -9.68408728 549.92647338 C-3.48107339 536.82940351 2.73480983 523.73847315 8.95449305 510.64931273 C16.99174497 493.73452649 25.01023362 476.8108901 33.02413416 459.88503051 C36.3926838 452.77063894 39.7626884 445.65693658 43.13256311 438.5431726 C44.2564048 436.17066871 45.38015219 433.79812018 46.50387049 431.42555785 C50.27733177 423.45860411 54.05186882 415.49216269 57.82833338 407.52663207 C62.30887446 398.07538894 66.78582203 388.62245063 71.25802088 379.16725707 C71.6401272 378.35943786 72.02223352 377.55161864 72.41591883 376.71932006 C74.69642467 371.89711818 76.97465347 367.07385042 79.2499032 362.24916625 C79.95786417 360.74848757 80.66639158 359.24807596 81.37551355 357.74794555 C82.34970359 355.68665977 83.32173468 353.62437009 84.29317713 351.56178832 C84.84368738 350.39494506 85.39419764 349.2281018 85.96139002 348.02589965 C88.60501486 342.19758044 89.50812219 336.85665119 87.416224 330.68288207 C86.19564212 327.96213202 84.87766179 325.31610615 83.50802088 322.66725707 C82.49064012 320.62321198 81.47372921 318.57893298 80.45723963 316.53444457 C79.66325769 314.96001586 79.66325769 314.96001586 78.85323572 313.35378051 C76.27306486 308.19975692 73.80210405 302.99425738 71.32052088 297.79225707 C70.31202092 295.69039955 69.30290304 293.58883842 68.29317713 291.48756957 C65.78026402 286.25495913 63.26808112 281.02199872 60.75631189 275.7888391 C59.75556166 273.70384765 58.75474761 271.61888683 57.75387049 269.53395629 C55.27768807 264.37574547 52.8022243 259.21719232 50.32833338 254.05788207 C44.96665221 242.87828228 39.58981439 231.70615029 34.19552088 220.54225707 C29.09130868 209.97851565 24.0140834 199.40219147 18.95723963 188.81569457 C11.44347095 173.08639698 3.88174301 157.38028845 -3.70203161 141.68465209 C-8.5065227 131.73985892 -13.28233243 121.78164526 -18.04276037 111.81569457 C-24.96389067 97.32702413 -31.92224076 82.85629232 -38.90772009 68.3985498 C-41.52101537 62.98902412 -44.13149847 57.57814142 -46.74197912 52.16725707 C-47.24648596 51.12231078 -47.75099279 50.07736449 -48.27078772 49.00075316 C-51.00364833 43.33555977 -53.71998489 37.6630116 -56.40994787 31.97731566 C-57.33535012 30.02508328 -58.26537438 28.07503782 -59.19901037 26.12672973 C-60.64390823 23.10492981 -62.0699977 20.07489625 -63.49197912 17.04225707 C-63.93509436 16.12323607 -64.37820959 15.20421508 -64.83475256 14.25734496 C-65.23210608 13.40003783 -65.62945959 12.5427307 -66.03885412 11.65944457 C-66.39302404 10.91033813 -66.74719397 10.16123168 -67.11209631 9.38942504 C-67.89742596 6.61885508 -67.61519091 4.89123483 -66.74197912 2.16725707 C-64.09754159 0.8450383 -61.99855199 0.95636523 -59.03735876 0.85675597 C-57.83258446 0.81564854 -56.62781015 0.7745411 -55.38652754 0.73218799 C-54.05043775 0.692659 -52.71433102 0.65369972 -51.37820959 0.61525512 C-50.69367515 0.59434039 -50.00914072 0.57342565 -49.30386281 0.55187714 C-32.8708763 0.0555845 -16.43924758 0.0027108 0 0 Z " fill="#FFFFFF" transform="translate(777.7419791221619,145.83274292945862)"/>
<path d="M0 0 C1.54984619 -0.00299655 3.09969165 -0.00640021 4.64953613 -0.01017761 C8.83515985 -0.01896588 13.0207631 -0.02135338 17.20639515 -0.0219934 C19.82348911 -0.02270621 22.44057792 -0.02484477 25.05767059 -0.02749062 C34.19274728 -0.03672298 43.32780943 -0.04082766 52.46289062 -0.04003906 C60.97277108 -0.03943704 69.4825884 -0.05001858 77.99245286 -0.06578273 C85.30900312 -0.07885264 92.62553271 -0.08422327 99.94209456 -0.08358365 C104.30781643 -0.08332874 108.67348199 -0.0861768 113.0391922 -0.0967617 C117.13995858 -0.10643481 121.24061465 -0.10652732 125.34138489 -0.09924507 C126.84542247 -0.09819864 128.34946691 -0.1005656 129.85349274 -0.10660553 C131.90736162 -0.11431948 133.96084885 -0.1096851 136.01470947 -0.10197449 C137.73798147 -0.10279164 137.73798147 -0.10279164 139.49606705 -0.1036253 C143.73819023 0.24167903 146.53113654 1.12268928 149.55371094 4.14526367 C150.54938932 9.32017107 150.81674788 14.51751522 151.05371094 19.77026367 C151.09395386 20.63404633 151.13419678 21.49782898 151.17565918 22.38778687 C151.30757607 25.30671936 151.43145773 28.22591111 151.55371094 31.14526367 C151.61957397 32.66981171 151.61957397 32.66981171 151.68676758 34.22515869 C152.34257535 49.76786239 152.66443621 65.30181645 152.83496094 80.85620117 C152.84493103 81.74804359 152.85490112 82.63988602 152.86517334 83.55875397 C152.96476454 92.5815079 153.05055944 101.6042052 153.10645294 110.62734032 C153.12914345 114.04040741 153.15923062 117.45338599 153.19065857 120.8663826 C153.20344386 122.47416331 153.2125763 124.08197756 153.21791077 125.68980026 C153.22534188 127.90347521 153.24463614 130.11675101 153.26660156 132.33032227 C153.27753845 134.20377823 153.27753845 134.20377823 153.28869629 136.11508179 C153.32485724 139.32208911 153.32485724 139.32208911 155.55371094 142.14526367 C163.26694367 143.77337799 171.34938866 143.39674096 179.20825195 143.51831055 C180.79458769 143.54601673 182.38091673 143.57410844 183.96723938 143.60255432 C187.37630592 143.66287179 190.78540344 143.72049704 194.19455147 143.77601624 C199.61838183 143.86438729 205.04209377 143.9589576 210.46580505 144.05432129 C219.08067526 144.2050834 227.69560776 144.35186905 236.31057638 144.49688864 C251.64141593 144.75496261 266.97218054 145.01731431 282.30285972 145.28474665 C286.79457356 145.36294565 291.2863004 145.44006266 295.77807808 145.51451111 C304.75550422 145.66346938 313.73252501 145.82202001 322.7092244 146.01020861 C327.30589514 146.10530239 331.90234874 146.179688 336.49960834 146.23950815 C339.41700382 146.28127832 342.33391811 146.33921174 345.25094211 146.4014349 C347.25290902 146.43915925 349.25521652 146.45719427 351.2574625 146.47467804 C352.44387301 146.50321617 353.63028353 146.5317543 354.85264587 146.56115723 C355.88706786 146.57752983 356.92148985 146.59390244 357.98725796 146.61077118 C360.55371094 147.14526367 360.55371094 147.14526367 362.40565491 149.02360916 C363.91691578 151.81648108 363.66064922 153.40497372 363.23364258 156.53295898 C362.47388854 163.37830992 362.52259463 170.06341707 362.67480469 176.94213867 C362.69944846 178.27577029 362.72341547 179.60941456 362.74676514 180.94306946 C362.79717365 183.78373119 362.85058089 186.62431263 362.90634155 189.46487427 C363.05356117 197.03898877 363.17146217 204.61359453 363.28808594 212.18823242 C363.30012243 212.96456465 363.31215893 213.74089687 363.32456017 214.54075432 C363.57186986 230.67962422 363.70301436 246.81790041 363.73196411 262.95861816 C363.73709822 265.78767727 363.74710625 268.61665152 363.76144409 271.44567871 C363.78094394 275.37810735 363.78372992 279.31044017 363.78417969 283.24291992 C363.79132996 284.41156082 363.79848022 285.58020172 363.80584717 286.78425598 C363.8012851 288.38039986 363.8012851 288.38039986 363.79663086 290.00878906 C363.79805588 290.93397842 363.7994809 291.85916779 363.8009491 292.81239319 C363.55371094 295.14526367 363.55371094 295.14526367 361.55371094 298.14526367 C358.6882425 299.10041982 356.886813 299.27619647 353.91177368 299.2900238 C352.95573368 299.29691664 351.99969368 299.30380947 351.01468277 299.31091118 C349.43999537 299.31483974 349.43999537 299.31483974 347.83349609 299.31884766 C346.72346096 299.32558565 345.61342583 299.33232365 344.46975327 299.33926582 C342.04269673 299.3534379 339.61562635 299.36536927 337.18854904 299.37536812 C333.29359961 299.39156187 329.3987247 299.41369048 325.5038147 299.43748474 C320.66187772 299.46692957 315.81993735 299.4950979 310.9779824 299.52142793 C295.92753805 299.60357017 280.87731204 299.71381194 265.82714844 299.83666992 C265.12176689 299.84242224 264.41638535 299.84817455 263.6896286 299.85410118 C240.43119011 300.04535005 217.17720744 300.31806284 193.92632294 300.96306229 C191.81418401 301.01998144 189.70197572 301.0713911 187.58966064 301.12130737 C183.76977376 301.21278483 179.95090255 301.32871795 176.13183594 301.44995117 C175.0658316 301.47504257 173.99982727 301.50013397 172.90151978 301.52598572 C163.84200444 301.8395767 163.84200444 301.8395767 155.55371094 305.14526367 C153.6508293 308.94771756 153.30264284 312.06936905 153.29923534 316.29070282 C153.29340315 317.53418 153.28757096 318.77765718 153.28156203 320.05881548 C153.2851951 321.43589864 153.28901946 322.81298131 153.29301453 324.19006348 C153.28999402 325.6551214 153.28610505 327.12017775 153.28142196 328.5852313 C153.27112037 332.61186732 153.27332926 336.63841452 153.27760255 340.6650579 C153.28006583 345.007311 153.27106064 349.34954249 153.26356506 353.69178772 C153.25080543 362.19855558 153.2490259 370.7052919 153.25136533 379.21206772 C153.25314705 386.12457196 153.25140199 393.03706661 153.24714088 399.9495697 C153.2462481 401.42426797 153.2462481 401.42426797 153.24533728 402.92875811 C153.24412556 404.92585679 153.24291142 406.92295546 153.2416949 408.92005414 C153.23081473 427.65497505 153.23298426 446.38987798 153.23907975 465.12479991 C153.2442507 482.2735883 153.23298961 499.42231992 153.21398153 516.57109708 C153.19462238 534.17122803 153.18634366 551.77133211 153.19010478 569.37147379 C153.19201958 579.25596389 153.18950214 589.14040565 153.17539024 599.02488708 C153.16350003 607.4384833 153.16204505 615.85200141 153.17418041 624.26559865 C153.18008542 628.55986867 153.18112392 632.85399566 153.16917801 637.1482563 C153.15837437 641.07747507 153.16135623 645.00643042 153.17543969 648.93563658 C153.1781019 650.3588505 153.1756726 651.78208471 153.16770383 653.20527881 C153.15763761 655.13677148 153.16778694 657.06833807 153.17898083 658.99982452 C153.17892581 660.0736213 153.1788708 661.14741807 153.17881411 662.25375414 C153.60870943 665.56945685 154.58767014 667.46428465 156.55371094 670.14526367 C159.80503141 671.59504164 163.47584073 671.32766046 166.99462891 671.41064453 C167.64400075 671.4271361 168.29337259 671.44362766 168.96242237 671.46061897 C171.1568304 671.51502496 173.35132914 671.5626818 175.54589844 671.61010742 C177.1465569 671.6476311 178.74720881 671.68543568 180.34785461 671.72349548 C184.77410186 671.82725457 189.20047488 671.92446605 193.62688828 672.02083588 C196.42771401 672.08274164 199.22846325 672.14737593 202.02920532 672.21295166 C226.25312624 672.77922819 250.47713935 673.20616619 274.70578313 673.49919659 C279.76556162 673.56045622 284.82529355 673.62476842 289.88500977 673.69096375 C291.32704541 673.70975798 292.76908108 673.72854949 294.21111679 673.74733829 C296.37087252 673.77548886 298.53062761 673.80368353 300.69038057 673.83204544 C309.29005026 673.94465685 317.88965831 674.0437956 326.48970658 674.12253577 C332.60105642 674.17951695 338.71201159 674.25644693 344.82304955 674.34021187 C347.3637653 674.37149903 349.90457752 674.39579718 352.44542885 674.41282463 C355.93538617 674.43698992 359.42421578 674.48520419 362.91381836 674.53930664 C364.45478589 674.54108115 364.45478589 674.54108115 366.02688408 674.5428915 C366.96665659 674.56232343 367.9064291 674.58175535 368.87467957 674.60177612 C369.6871625 674.61024 370.49964544 674.61870388 371.33674908 674.62742424 C374.4879109 675.36347472 375.64711703 676.55218976 377.55371094 679.14526367 C378.05428219 682.06538486 378.05428219 682.06538486 378.05491638 685.52845764 C378.06475052 686.84222885 378.07458466 688.15600006 378.0847168 689.50958252 C378.07534501 690.96374771 378.0655657 692.41791032 378.05541992 693.87207031 C378.05920324 695.40472408 378.06470339 696.93737444 378.0717926 698.47001648 C378.08576183 702.6311506 378.07456788 706.79187192 378.05808139 710.95298314 C378.04424 715.30512019 378.05068983 719.65723305 378.05421448 724.00938416 C378.05691704 731.31719626 378.04343612 738.62484415 378.02026367 745.93261719 C377.99364365 754.38625333 377.99190979 762.83961506 378.00365204 771.29327875 C378.01442325 779.42088594 378.00824857 787.54839368 377.99409676 795.67599297 C377.98833223 799.13727603 377.98842325 802.59848644 377.99316216 806.05977058 C377.99792718 810.13346293 377.98785023 814.20685396 377.9662075 818.28048897 C377.96063331 819.77728764 377.96018013 821.27411522 377.96516037 822.77091599 C377.97109602 824.81030186 377.95679879 826.84971704 377.94139099 828.88905334 C377.93774615 830.60270883 377.93774615 830.60270883 377.93402767 832.35098362 C377.55371094 835.14526367 377.55371094 835.14526367 376.15958786 836.99381351 C371.65296729 840.22516262 365.160403 839.28638582 359.86108398 839.2746582 C358.88120357 839.2763822 357.90132315 839.27810619 356.89174938 839.27988243 C353.61629278 839.28423967 350.34088703 839.28126659 347.06542969 839.27807617 C344.73316429 839.27917735 342.40089904 839.28060887 340.06863403 839.28234863 C333.76954307 839.2852713 327.47047796 839.28091923 321.17139053 839.27423859 C317.24490611 839.27026741 313.31842304 839.26775187 309.39193726 839.26556396 C274.05515279 839.24295126 238.71916581 839.12637125 203.38376236 838.79738617 C200.40814827 838.77064062 197.43252428 838.7468801 194.45687866 838.72393799 C176.00970347 838.57757368 157.59268933 838.32617618 139.17480469 837.21557617 C137.87162796 837.13739655 136.56845123 837.05921692 135.2257843 836.97866821 C89.27125079 833.92217064 47.2080836 817.55968261 16.33496094 782.47338867 C-8.81692255 752.91816423 -30.68967223 704.44671058 -30.5721302 665.38405991 C-30.57358364 664.53375322 -30.57503708 663.68344654 -30.57653457 662.80737299 C-30.58017996 659.96163138 -30.57671447 657.11594384 -30.57327271 654.27020264 C-30.57442531 652.20580431 -30.57601377 650.14140618 -30.57799995 648.07700849 C-30.58217872 642.40234064 -30.58010859 636.72768958 -30.57701373 631.05302167 C-30.57475208 624.92500015 -30.57824435 618.79698152 -30.58099365 612.66896057 C-30.58519417 601.32404069 -30.58481228 589.97912764 -30.58208218 578.63420792 C-30.57955395 568.07162114 -30.57891557 557.5090363 -30.58010483 546.94644928 C-30.58018121 546.24225729 -30.5802576 545.53806531 -30.5803363 544.81253417 C-30.58064779 541.95162462 -30.5809662 539.09071507 -30.58129606 536.22980552 C-30.58436202 509.31177004 -30.58157855 482.39373788 -30.57619916 455.47570292 C-30.57166942 432.63834575 -30.57158801 409.80099366 -30.57620775 386.96363651 C-30.59203689 308.357485 -30.59491134 229.75131008 -30.16143937 71.50045721 C-30.13297893 66.39933373 -30.11140309 61.29821325 -30.09302139 56.19704437 C-30.06926665 49.68390417 -30.02999883 43.17100365 -29.97824335 36.65801525 C-29.9621638 34.37813056 -29.9508193 32.09820617 -29.94485235 29.81827259 C-29.93592426 26.79117236 -29.908851 23.76478334 -29.87667847 20.737854 C-29.87830998 19.88418267 -29.87994148 19.03051134 -29.88162243 18.15097117 C-29.79432844 12.50111434 -28.92947135 7.27878101 -26.44628906 2.14526367 C-18.96760388 -1.59407892 -8.21790432 -0.00318382 0 0 Z " fill="#FFFFFF" transform="translate(1518.4462890625,-0.145263671875)"/>
</svg>
