<svg width="157" height="41" viewBox="0 0 157 41" fill="none" xmlns="http://www.w3.org/2000/svg">
<path d="M48.9317 33.3208C45.95 33.3208 43.2366 32.6499 40.7916 31.3081C40.2847 30.9503 40.0312 30.4583 40.0312 29.8322C40.0312 29.3551 40.1952 28.9376 40.5232 28.5798C40.8512 28.222 41.2687 28.0431 41.7756 28.0431C42.0439 28.0431 42.3123 28.1028 42.5806 28.222C43.5348 28.6395 44.4889 28.9675 45.4431 29.206C46.3972 29.4445 47.4707 29.5638 48.6633 29.5638C51.9731 29.5638 53.6279 28.5053 53.6279 26.3883C53.6279 25.7025 53.2403 25.1807 52.465 24.8229C51.7196 24.4651 50.4822 24.0625 48.7528 23.6153C46.9936 23.1978 45.5325 22.7655 44.3697 22.3182C43.2366 21.871 42.2526 21.2001 41.4178 20.3056C40.6127 19.3812 40.2102 18.1736 40.2102 16.6828C40.2102 14.5955 40.9556 12.896 42.4464 11.584C43.9671 10.272 46.1289 9.61606 48.9317 9.61606C51.2276 9.61606 53.3894 9.98878 55.417 10.7342C55.8344 10.8535 56.1475 11.0771 56.3562 11.4051C56.5947 11.7331 56.714 12.076 56.714 12.4338C56.714 12.9109 56.5351 13.3283 56.1773 13.6861C55.8493 14.0439 55.4319 14.2228 54.925 14.2228C54.7759 14.2228 54.5821 14.193 54.3435 14.1334C52.6141 13.5967 50.9145 13.3283 49.2448 13.3283C47.6347 13.3283 46.3674 13.6265 45.4431 14.2228C44.5486 14.7894 44.1013 15.5348 44.1013 16.4591C44.1013 17.3536 44.5187 18.0096 45.3536 18.4271C46.1885 18.8445 47.4856 19.247 49.2448 19.6347C51.004 20.0819 52.4352 20.5292 53.5385 20.9764C54.6417 21.3939 55.5809 22.0648 56.3562 22.9891C57.1613 23.9134 57.5638 25.1509 57.5638 26.7014C57.5638 28.6097 56.8035 30.19 55.2828 31.4423C53.7919 32.6946 51.6749 33.3208 48.9317 33.3208Z" fill="#2F40DD"/>
<path d="M63.1755 5.41183C62.5493 5.41183 62.0126 5.1882 61.5654 4.74094C61.1181 4.29368 60.8945 3.75697 60.8945 3.13081V2.95191C60.8945 2.32574 61.1181 1.78903 61.5654 1.34178C62.0126 0.894517 62.5493 0.670888 63.1755 0.670888H63.4438C64.07 0.670888 64.6067 0.894517 65.054 1.34178C65.5012 1.78903 65.7249 2.32574 65.7249 2.95191V3.13081C65.7249 3.75697 65.5012 4.29368 65.054 4.74094C64.6067 5.1882 64.07 5.41183 63.4438 5.41183H63.1755ZM63.2649 33.0972C62.6984 33.0972 62.2213 32.9033 61.8337 32.5157C61.4461 32.1281 61.2523 31.651 61.2523 31.0845V11.8971C61.2523 11.3306 61.4461 10.8535 61.8337 10.4659C62.2213 10.0484 62.6984 9.83969 63.2649 9.83969C63.8613 9.83969 64.3533 10.0335 64.7409 10.4211C65.1285 10.8088 65.3223 11.3007 65.3223 11.8971V31.0845C65.3223 31.651 65.1136 32.1281 64.6962 32.5157C64.3086 32.9033 63.8315 33.0972 63.2649 33.0972Z" fill="#2F40DD"/>
<path d="M72.6137 33.0972C72.0472 33.0972 71.5701 32.9033 71.1825 32.5157C70.7949 32.1281 70.601 31.651 70.601 31.0845V2.05739C70.601 1.49086 70.7949 1.01379 71.1825 0.626162C71.5701 0.208721 72.0472 0 72.6137 0C73.21 0 73.702 0.193811 74.0897 0.581434C74.4773 0.969059 74.6711 1.46104 74.6711 2.05739V31.0845C74.6711 31.651 74.4624 32.1281 74.0449 32.5157C73.6573 32.9033 73.1802 33.0972 72.6137 33.0972Z" fill="#2F40DD"/>
<path d="M81.873 5.41183C81.2468 5.41183 80.7101 5.1882 80.2629 4.74094C79.8156 4.29368 79.592 3.75697 79.592 3.13081V2.95191C79.592 2.32574 79.8156 1.78903 80.2629 1.34178C80.7101 0.894517 81.2468 0.670888 81.873 0.670888H82.1414C82.7675 0.670888 83.3042 0.894517 83.7515 1.34178C84.1988 1.78903 84.4224 2.32574 84.4224 2.95191V3.13081C84.4224 3.75697 84.1988 4.29368 83.7515 4.74094C83.3042 5.1882 82.7675 5.41183 82.1414 5.41183H81.873ZM81.9625 33.0972C81.3959 33.0972 80.9189 32.9033 80.5312 32.5157C80.1436 32.1281 79.9498 31.651 79.9498 31.0845V11.8971C79.9498 11.3306 80.1436 10.8535 80.5312 10.4659C80.9189 10.0484 81.3959 9.83969 81.9625 9.83969C82.5588 9.83969 83.0508 10.0335 83.4384 10.4211C83.826 10.8088 84.0199 11.3007 84.0199 11.8971V31.0845C84.0199 31.651 83.8111 32.1281 83.3937 32.5157C83.0061 32.9033 82.529 33.0972 81.9625 33.0972Z" fill="#2F40DD"/>
<path d="M99.8539 33.3208C97.707 33.3208 95.7242 32.8437 93.9053 31.8896C92.0865 30.9354 90.6254 29.5638 89.5222 27.7748C88.4488 25.9857 87.912 23.8836 87.912 21.4684C87.912 19.0532 88.4488 16.9511 89.5222 15.1621C90.6254 13.373 92.0865 12.0014 93.9053 11.0473C95.7242 10.0931 97.707 9.61606 99.8539 9.61606C101.434 9.61606 102.791 9.82479 103.924 10.2422C105.087 10.6299 106.16 11.1367 107.144 11.7629C107.741 12.1505 108.039 12.6723 108.039 13.3283C108.039 13.7756 107.86 14.193 107.502 14.5806C107.174 14.9384 106.786 15.1173 106.339 15.1173C106.011 15.1173 105.683 15.0279 105.355 14.849C104.371 14.3421 103.521 13.9843 102.806 13.7756C102.12 13.537 101.255 13.4178 100.212 13.4178C97.6474 13.4178 95.6347 14.1632 94.1737 15.6541C92.7126 17.1151 91.9821 19.0532 91.9821 21.4684C91.9821 23.8836 92.7126 25.8367 94.1737 27.3275C95.6347 28.7886 97.6474 29.5191 100.212 29.5191C101.255 29.5191 102.12 29.4147 102.806 29.206C103.521 28.9675 104.371 28.5948 105.355 28.0879C105.683 27.909 106.011 27.8195 106.339 27.8195C106.786 27.8195 107.174 28.0133 107.502 28.4009C107.86 28.7587 108.039 29.1613 108.039 29.6085C108.039 30.2645 107.741 30.7863 107.144 31.1739C106.16 31.8001 105.087 32.3219 103.924 32.7393C102.791 33.127 101.434 33.3208 99.8539 33.3208Z" fill="#2F40DD"/>
<path d="M121.246 33.3208C118.95 33.3208 116.938 32.8288 115.208 31.8448C113.479 30.8609 112.137 29.4744 111.183 27.6853C110.258 25.8665 109.796 23.7942 109.796 21.4684C109.796 19.1427 110.258 17.0853 111.183 15.2963C112.137 13.4774 113.479 12.076 115.208 11.092C116.938 10.108 118.95 9.61606 121.246 9.61606C123.512 9.61606 125.51 10.108 127.239 11.092C128.969 12.076 130.311 13.4774 131.265 15.2963C132.219 17.0853 132.696 19.1427 132.696 21.4684C132.696 23.7942 132.219 25.8665 131.265 27.6853C130.311 29.4744 128.969 30.8609 127.239 31.8448C125.51 32.8288 123.512 33.3208 121.246 33.3208ZM121.246 29.6085C122.469 29.6085 123.631 29.3253 124.735 28.7587C125.868 28.1922 126.792 27.2977 127.508 26.0752C128.253 24.8527 128.626 23.3022 128.626 21.4237C128.626 19.575 128.253 18.0394 127.508 16.8169C126.792 15.5944 125.868 14.7148 124.735 14.1781C123.631 13.6116 122.469 13.3283 121.246 13.3283C119.994 13.3283 118.801 13.6116 117.668 14.1781C116.565 14.7148 115.655 15.5944 114.94 16.8169C114.224 18.0394 113.866 19.575 113.866 21.4237C113.866 23.3022 114.224 24.8527 114.94 26.0752C115.655 27.2977 116.565 28.1922 117.668 28.7587C118.801 29.3253 119.994 29.6085 121.246 29.6085Z" fill="#2F40DD"/>
<path d="M138.618 33.0972C138.051 33.0972 137.574 32.9033 137.186 32.5157C136.799 32.1281 136.605 31.651 136.605 31.0845V11.8971C136.605 11.3306 136.799 10.8535 137.186 10.4659C137.574 10.0484 138.051 9.83969 138.618 9.83969C139.184 9.83969 139.661 10.0484 140.049 10.4659C140.466 10.8535 140.675 11.3306 140.675 11.8971V13.7308C141.808 12.4785 143.031 11.4796 144.342 10.7342C145.654 9.98878 147.205 9.61606 148.994 9.61606C150.634 9.61606 152.05 10.0037 153.243 10.7789C154.465 11.5542 155.39 12.6127 156.016 13.9545C156.672 15.2963 157 16.7722 157 18.3823V31.0845C157 31.651 156.791 32.1281 156.374 32.5157C155.986 32.9033 155.509 33.0972 154.943 33.0972C154.376 33.0972 153.899 32.9033 153.511 32.5157C153.124 32.1281 152.93 31.651 152.93 31.0845V18.8296C152.93 15.1919 151.29 13.373 148.01 13.373C146.519 13.373 145.177 13.7607 143.985 14.5359C142.822 15.3112 141.719 16.3548 140.675 17.6667V31.0845C140.675 31.651 140.466 32.1281 140.049 32.5157C139.661 32.9033 139.184 33.0972 138.618 33.0972Z" fill="#2F40DD"/>
<path d="M15.5675 40.6165C14.4713 40.2666 14.0753 39.5355 14.0893 38.4645C14.1275 35.5459 14.1024 37.0043 14.1024 34.0853V33.5949C13.3061 33.51 12.5332 33.4477 11.7671 33.3419C9.57506 33.0393 7.48025 32.4518 5.58299 31.3434C2.43293 29.5032 0.693596 26.7916 0.186987 23.374C-0.424409 19.2496 0.517074 15.3411 2.23061 11.5726C3.52876 8.71758 5.28883 6.14228 7.74182 4.03075C9.47047 2.54272 11.4239 1.42648 13.753 0.996474C16.6549 0.46071 19.2907 1.13375 21.7099 2.65194C24.3481 4.30764 26.2775 6.57265 27.806 9.15009C30.0776 12.9808 31.3873 17.0718 31.3044 21.4914C31.2501 24.3871 30.4222 27.0507 28.322 29.2628C26.9481 30.71 25.2447 31.6933 23.3213 32.3464C22.3647 32.6712 21.3479 32.2109 20.9977 31.3391C20.6518 30.4782 21.0842 29.5598 21.9819 29.1384C22.8649 28.7238 23.7883 28.3475 24.5801 27.8063C26.495 26.4975 27.3557 24.6015 27.562 22.4407C27.9617 18.2543 26.6987 14.4246 24.589 10.806C23.4476 8.84828 22.001 7.11062 20.0635 5.78219C18.6212 4.79321 17.0377 4.15594 15.2127 4.28825C13.526 4.41054 12.0903 5.12427 10.799 6.11067C8.6693 7.73748 7.16297 9.81706 5.99423 12.1225C4.50342 15.0634 3.61238 18.1468 3.66978 21.4328C3.68999 22.5894 3.89016 23.7223 4.33303 24.8065C5.05537 26.5747 6.34344 27.8654 8.11503 28.7421C9.67539 29.5143 12.2239 30.0914 14.0822 30.0762C14.0888 29.9445 14.1014 29.8092 14.1015 29.6738C14.1029 27.9339 14.0936 26.1939 14.1102 24.4542C14.1134 24.126 14.0309 24.0048 13.6642 23.9214C11.3504 23.3955 9.48775 22.2743 8.39835 20.2025C8.0343 19.5102 7.86168 18.7695 7.87137 17.9945C7.88315 17.052 8.63122 16.3069 9.60555 16.2647C10.5809 16.2225 11.4035 16.8913 11.5228 17.8236C11.6947 19.1661 12.5894 20.092 14.0744 20.4327C14.084 20.3076 14.101 20.1877 14.1012 20.0677C14.1032 18.8311 14.0982 11.698 14.1039 10.4614C14.1087 9.40904 14.8842 8.64224 15.9314 8.64124C16.9787 8.64024 17.7607 9.40646 17.7633 10.4575C17.769 12.7294 17.7652 20.8978 17.7652 23.1697C17.7652 23.3243 17.7652 23.4789 17.7652 23.6405C19.2726 23.3333 20.4494 22.035 20.5113 20.6433C20.5595 19.5578 21.3496 18.8158 22.4179 18.8527C23.4577 18.8887 24.1886 19.6745 24.173 20.7397C24.1337 23.4272 22.15 25.8845 19.2181 26.8606C18.7594 27.0134 18.2836 27.1208 17.7652 27.2631C17.7652 27.4068 17.7652 27.5753 17.7652 27.7438C17.7652 32.7766 17.7492 33.4317 17.7781 38.4643C17.7842 39.5344 17.3956 40.266 16.3001 40.6165H15.5675Z" fill="#2F40DD"/>
</svg>
