<svg width="787" height="75" viewBox="0 0 787 75" fill="none" xmlns="http://www.w3.org/2000/svg">
<path d="M564.18 0V45.7716L529.617 0L514 0V75H529.617V27.0681L564.18 75H580V0H564.18Z" fill="white"/>
<path d="M624.154 46.8114H643.083C642.488 48.7788 641.662 50.6106 640.605 52.3067C639.614 54.0027 638.326 55.4953 636.74 56.7843C635.221 58.0054 633.404 58.9891 631.29 59.7354C629.241 60.4138 626.896 60.7531 624.253 60.7531C620.091 60.7531 616.391 59.8033 613.154 57.9037C609.917 55.9362 607.34 53.1886 605.424 49.6608C603.574 46.133 602.649 41.9946 602.649 37.2456C602.649 32.4288 603.607 28.3243 605.523 24.9322C607.505 21.54 610.115 18.9281 613.352 17.0963C616.656 15.2646 620.289 14.3487 624.253 14.3487C628.416 14.3487 631.884 15.2985 634.659 17.1981C637.5 19.0977 639.746 21.5061 641.398 24.4233L655.272 16.6893C653.092 13.365 650.515 10.4817 647.542 8.03935C644.569 5.52917 641.134 3.56173 637.236 2.13704C633.404 0.712345 629.076 0 624.253 0C618.77 0 613.716 0.881953 609.091 2.64586C604.466 4.40977 600.403 6.95387 596.901 10.2782C593.466 13.5346 590.79 17.4695 588.874 22.0828C586.958 26.6282 586 31.6825 586 37.2456C586 42.8087 586.925 47.9308 588.775 52.6119C590.691 57.2252 593.334 61.228 596.703 64.6201C600.072 67.9444 604.037 70.5224 608.595 72.3541C613.22 74.118 618.241 75 623.659 75C629.539 75 634.725 73.9484 639.218 71.8453C643.71 69.6743 647.476 66.7232 650.515 62.9919C653.554 59.1927 655.768 54.8507 657.155 49.9661C658.609 45.0136 659.203 39.7558 658.939 34.1927H624.154V46.8114Z" fill="white"/>
<path fill-rule="evenodd" clip-rule="evenodd" d="M751.396 48.5357L767.494 75H787L767.829 46.465C768.575 46.1838 769.293 45.8741 769.984 45.5357C774.134 43.4643 777.281 40.6071 779.426 36.9643C781.57 33.25 782.642 29.0357 782.642 24.3214C782.642 19.4643 781.57 15.2143 779.426 11.5714C777.281 7.92858 774.134 5.10715 769.984 3.10715C765.903 1.03572 760.853 0 754.835 0H729V75H745.601V48.5357H751.396ZM745.601 14.5714V35.1429H753.694C756.115 35.1429 758.19 34.75 759.919 33.9643C761.718 33.1786 763.101 32 764.07 30.4286C765.038 28.8571 765.522 27 765.522 24.8571C765.522 22.6429 765.038 20.7857 764.07 19.2857C763.101 17.7857 761.718 16.6429 759.919 15.8571C758.19 15 756.115 14.5714 753.694 14.5714H745.601Z" fill="white"/>
<path fill-rule="evenodd" clip-rule="evenodd" d="M211.764 51.9325C207.956 55.9224 202.586 58.4082 196.636 58.4082C185.088 58.4082 175.727 49.0473 175.727 37.5C175.727 25.9527 185.088 16.5918 196.636 16.5918C202.673 16.5918 208.114 19.151 211.93 23.2438L223.819 11.6675C216.987 4.48051 207.335 0 196.636 0C175.925 0 159.136 16.7893 159.136 37.5C159.136 58.2107 175.925 75 196.636 75C207.291 75 216.908 70.5563 223.735 63.4211C220.048 59.9408 215.877 55.9574 211.764 51.9325Z" fill="white"/>
<path fill-rule="evenodd" clip-rule="evenodd" d="M308 75H383L345.5 0L308 75ZM333.889 59H357.111L345.5 35.7771L333.889 59Z" fill="white"/>
<path d="M58.4082 17.952V58.3323H16.5918V17.2218L0 0V74.924H75V0.124652C71.8963 3.52749 65.5309 10.4603 58.4082 17.952Z" fill="white"/>
<path fill-rule="evenodd" clip-rule="evenodd" d="M447.577 16H505.577V0H447.577V16ZM505.577 46H447.577V30H505.577V46ZM505.577 75H447.577V59H505.577V75Z" fill="white"/>
<path fill-rule="evenodd" clip-rule="evenodd" d="M665 16H723V0H665V16ZM723 46H665V30H723V46ZM723 75H665V59H723V75Z" fill="white"/>
<path fill-rule="evenodd" clip-rule="evenodd" d="M257.296 0V29.7041H287.704V0H304.296V75H287.704V46.2959H257.296V75H240.704V46.2959H192.464V29.7041L240.704 29.7041V0H257.296Z" fill="white"/>
<path fill-rule="evenodd" clip-rule="evenodd" d="M403 0V59H417L417 0H433L433 59H448V75H433H417H395H387V67V0H403Z" fill="white"/>
<path fill-rule="evenodd" clip-rule="evenodd" d="M120.34 52.6794L135.366 67.7055L146.679 56.3917L131.653 41.3657L146.679 26.3397L135.366 15.026L120.34 30.052L105.314 15.026L94 26.3397L109.026 41.3657L94 56.3917L105.314 67.7055L120.34 52.6794Z" fill="#FF003D"/>
</svg>
